<svg width="166" height="38" viewBox="0 0 166 38" fill="none" xmlns="http://www.w3.org/2000/svg">
<g clip-path="url(#clip0_4246_5007)">
<path d="M54.5843 27.0291C53.2034 26.2709 52.1475 25.1879 51.3893 23.78C50.6583 22.3991 50.2792 20.7746 50.2792 18.9335C50.2792 17.0923 50.6583 15.4949 51.3893 14.114C52.1204 12.7332 53.2034 11.6502 54.5843 10.8921C55.9651 10.1339 57.5896 9.75488 59.4578 9.75488C60.6221 9.75488 61.7593 9.94441 62.8694 10.2964C63.9795 10.6484 64.873 11.1357 65.5498 11.7314L64.1148 15.0075C62.6257 13.9787 61.1095 13.4642 59.5661 13.4642C58.1041 13.4642 56.994 13.9245 56.2088 14.8451C55.4236 15.7656 55.0445 17.1194 55.0445 18.9606C55.0445 20.7746 55.4236 22.1555 56.2088 23.076C56.994 23.9966 58.1041 24.4569 59.5661 24.4569C61.1095 24.4569 62.6257 23.9425 64.1148 22.9136L65.5769 26.2168C64.8729 26.8125 63.9795 27.2998 62.8964 27.6518C61.8134 28.0038 60.6762 28.1933 59.4849 28.1933C57.5896 28.1662 55.9651 27.7872 54.5843 27.0291Z" fill="#3CC48F"/>
<path d="M69.6924 27.3269C68.6364 26.7854 67.8513 26.0273 67.2827 25.0526C66.7141 24.0778 66.4163 22.9136 66.4163 21.5869C66.4163 20.2602 66.7141 19.0959 67.2827 18.1212C67.8513 17.1465 68.6635 16.3884 69.6924 15.874C70.7213 15.3595 71.9397 15.0888 73.3476 15.0888C74.7284 15.0888 75.9468 15.3595 77.0028 15.874C78.0316 16.3884 78.8439 17.1465 79.4125 18.1212C79.9811 19.0959 80.2789 20.2602 80.2789 21.5869C80.2789 22.9136 79.9811 24.0778 79.4125 25.0526C78.8439 26.0273 78.0316 26.8125 77.0028 27.3269C75.9739 27.8684 74.7555 28.1392 73.3476 28.1392C71.9397 28.1392 70.7213 27.8684 69.6924 27.3269ZM75.7302 21.5869C75.7302 19.475 74.918 18.419 73.3205 18.419C71.696 18.419 70.9108 19.475 70.9108 21.5869C70.9108 23.6988 71.7231 24.7547 73.3205 24.7547C74.918 24.7547 75.7302 23.6988 75.7302 21.5869Z" fill="#3CC48F"/>
<path d="M91.7589 18.7981L89.2951 19.0418C88.3203 19.1501 87.6164 19.4208 87.2373 19.827C86.8583 20.2602 86.6417 20.8558 86.6417 21.641V27.9496H82.093V15.3866H86.398V17.5526C86.6958 16.7945 87.1561 16.1989 87.833 15.7927C88.4828 15.3866 89.2951 15.17 90.2427 15.1158L91.4882 15.0075L91.7589 18.7981Z" fill="#3CC48F"/>
<path d="M103.131 16.4425C104.078 17.3631 104.539 18.771 104.539 20.6934V27.9226H100.288V26.1626C100.044 26.7854 99.6379 27.2457 99.0964 27.5976C98.5278 27.9496 97.8509 28.1121 97.0928 28.1121C96.2264 28.1121 95.4412 27.9496 94.7372 27.5976C94.0333 27.2457 93.4918 26.7583 93.0856 26.1356C92.6795 25.5128 92.49 24.8089 92.49 24.0237C92.49 23.1302 92.7337 22.3991 93.1939 21.8576C93.6542 21.3161 94.4123 20.9371 95.4141 20.6934C96.443 20.4497 97.8239 20.3414 99.5567 20.3414H100.234V20.0436C100.234 19.4208 100.098 18.9876 99.8004 18.744C99.5025 18.5003 98.9881 18.3649 98.2571 18.3649C97.6885 18.3649 97.0116 18.4732 96.2535 18.7169C95.4954 18.9335 94.7914 19.2313 94.1145 19.5833L92.9773 16.605C93.7084 16.1718 94.6289 15.7927 95.712 15.4949C96.8221 15.1971 97.8239 15.0617 98.7444 15.0617C100.721 15.0888 102.183 15.549 103.131 16.4425ZM99.6379 24.4569C100.017 24.0237 100.234 23.4551 100.234 22.7782V22.4804H99.8274C98.7444 22.4804 97.9592 22.5887 97.4989 22.7782C97.0387 22.9677 96.8221 23.2926 96.8221 23.7529C96.8221 24.132 96.9574 24.4569 97.2011 24.7276C97.4448 24.9713 97.7697 25.1067 98.1488 25.1067C98.7444 25.1067 99.2589 24.8901 99.6379 24.4569Z" fill="#3CC48F"/>
<path d="M106.65 27.9496V9.97149H111.199V27.9496H106.65Z" fill="#3CC48F"/>
<path d="M116.344 27.3269C115.288 26.7854 114.502 26.0273 113.934 25.0526C113.365 24.0778 113.067 22.9136 113.067 21.5869C113.067 20.2602 113.365 19.0959 113.934 18.1212C114.502 17.1465 115.315 16.3884 116.344 15.874C117.372 15.3595 118.591 15.0888 119.999 15.0888C121.38 15.0888 122.598 15.3595 123.654 15.874C124.683 16.3884 125.495 17.1465 126.064 18.1212C126.632 19.0959 126.93 20.2602 126.93 21.5869C126.93 22.9136 126.632 24.0778 126.064 25.0526C125.495 26.0273 124.683 26.8125 123.654 27.3269C122.625 27.8684 121.407 28.1392 119.999 28.1392C118.591 28.1392 117.372 27.8684 116.344 27.3269ZM122.381 21.5869C122.381 19.475 121.569 18.419 119.972 18.419C118.347 18.419 117.562 19.475 117.562 21.5869C117.562 23.6988 118.374 24.7547 119.972 24.7547C121.596 24.7547 122.381 23.6988 122.381 21.5869Z" fill="#3CC48F"/>
<path d="M142.471 15.3866V26.4063C142.471 28.4911 141.849 30.0615 140.63 31.1175C139.385 32.2005 137.571 32.7149 135.161 32.7149C134.024 32.7149 132.914 32.5795 131.858 32.3088C130.775 32.038 129.854 31.6861 129.069 31.1987L130.206 28.1121C130.991 28.5182 131.804 28.8431 132.643 29.0597C133.482 29.2763 134.268 29.3846 135.026 29.3846C136.027 29.3846 136.786 29.168 137.246 28.7348C137.733 28.3016 137.977 27.6247 137.977 26.6771V25.7024C137.598 26.2709 137.056 26.7042 136.379 27.0291C135.675 27.354 134.917 27.5164 134.105 27.5164C133.022 27.5164 132.047 27.2727 131.208 26.7583C130.369 26.2439 129.692 25.5128 129.231 24.5652C128.744 23.6175 128.527 22.5345 128.527 21.2891C128.527 20.0436 128.771 18.9606 129.231 18.0129C129.719 17.0653 130.369 16.3342 131.208 15.8198C132.047 15.3054 133.022 15.0346 134.105 15.0346C134.944 15.0346 135.702 15.1971 136.406 15.549C137.11 15.901 137.652 16.3613 138.004 16.957V15.3595H142.471V15.3866ZM137.354 23.428C137.787 22.9136 138.004 22.2367 138.004 21.3432C138.004 20.4497 137.787 19.7457 137.354 19.2313C136.921 18.7169 136.298 18.4732 135.486 18.4732C134.701 18.4732 134.105 18.7169 133.645 19.2313C133.212 19.7457 132.995 20.4497 132.995 21.3703C132.995 22.2638 133.212 22.9407 133.672 23.4551C134.132 23.9695 134.728 24.2132 135.486 24.2132C136.298 24.1861 136.921 23.9425 137.354 23.428Z" fill="#3CC48F"/>
<path d="M144.502 9.13214H149.24V13.2476H144.502V9.13214ZM144.61 27.9496V15.3866H149.159V27.9226H144.61V27.9496Z" fill="#3CC48F"/>
<path d="M160.666 21.4515L166 27.9226H160.693L158.067 24.6193L155.441 27.9226H150.161L155.495 21.4515L150.459 15.3866H155.793L158.067 18.3378L160.368 15.3866H165.702L160.666 21.4515Z" fill="#3CC48F"/>
<path d="M18.8446 34.1892C27.2551 34.1892 34.0732 27.3711 34.0732 18.9606C34.0732 10.55 27.2551 3.73188 18.8446 3.73188C10.434 3.73188 3.61589 10.55 3.61589 18.9606C3.61589 27.3711 10.434 34.1892 18.8446 34.1892Z" fill="#3CC48F"/>
<path d="M18.8446 37.778C8.44756 37.778 0 29.3305 0 18.9606C0 8.56356 8.44756 0.115997 18.8446 0.115997C29.2416 0.115997 37.6891 8.56356 37.6891 18.9606C37.662 29.3305 29.2145 37.778 18.8446 37.778ZM18.8446 3.85242C10.5324 3.85242 3.7635 10.6213 3.7635 18.9335C3.7635 27.2457 10.5324 34.0145 18.8446 34.0145C27.1567 34.0145 33.9256 27.2457 33.9256 18.9335C33.9256 10.6213 27.1567 3.85242 18.8446 3.85242Z" fill="#AEFFDC"/>
</g>
<defs>
<clipPath id="clip0_4246_5007">
<rect width="166" height="37.662" fill="white" transform="translate(0 0.115997)"/>
</clipPath>
</defs>
</svg>
