<svg width="194" height="38" viewBox="0 0 194 38" fill="none" xmlns="http://www.w3.org/2000/svg">
<path style="mix-blend-mode:multiply" d="M24.6976 29.6865L46.2356 0.84552L11.4826 0.851856L24.6976 29.6865Z" fill="url(#paint0_linear_4246_5141)"/>
<path style="mix-blend-mode:multiply" d="M7.98799 24.4081L46.2356 0.84552H0.906868L7.98799 24.4081Z" fill="url(#paint1_linear_4246_5141)"/>
<path style="mix-blend-mode:multiply" d="M18.1012 37.1636L27.21 5.33815L5.6403 2.99045L18.1012 37.1636Z" fill="url(#paint2_linear_4246_5141)"/>
<g style="mix-blend-mode:multiply">
<path d="M42.1802 1.37146L15.3353 8.41773L2.89339 1.37146H42.1802ZM46.2356 0.84552H0.906868L15.2624 8.97852L46.2356 0.84552Z" fill="url(#paint3_linear_4246_5141)"/>
</g>
<path d="M63.6707 9.85928H52.7084C52.1152 9.85928 51.5279 9.97617 50.9799 10.2033C50.4319 10.4303 49.9341 10.7632 49.5148 11.1828C49.0955 11.6023 48.763 12.1004 48.5363 12.6485C48.3096 13.1967 48.1932 13.7841 48.1936 14.3773V23.917C48.1936 25.0934 48.6609 26.2216 49.4927 27.0534C50.3246 27.8853 51.4528 28.3526 52.6292 28.3526H67.2033C67.2268 28.3526 67.2494 28.3432 67.266 28.3266C67.2827 28.31 67.292 28.2874 67.292 28.2639V24.3289C67.292 24.3053 67.2827 24.2828 67.266 24.2661C67.2494 24.2495 67.2268 24.2401 67.2033 24.2401H54.2292C54.0511 24.2402 53.8748 24.2049 53.7105 24.1365C53.5461 24.0681 53.3969 23.9678 53.2714 23.8415C53.146 23.7151 53.0467 23.5652 52.9795 23.4004C52.9122 23.2355 52.8782 23.059 52.8795 22.8809V15.3151C52.8791 15.1376 52.9137 14.9617 52.9813 14.7976C53.0489 14.6335 53.1483 14.4843 53.2737 14.3587C53.399 14.233 53.548 14.1333 53.7119 14.0653C53.8759 13.9972 54.0517 13.9622 54.2292 13.9622H62.0612C62.2387 13.9622 62.4145 13.9972 62.5784 14.0653C62.7424 14.1333 62.8913 14.233 63.0167 14.3587C63.142 14.4843 63.2414 14.6335 63.309 14.7976C63.3767 14.9617 63.4113 15.1376 63.4109 15.3151V15.8125C63.413 15.9911 63.3796 16.1683 63.3127 16.3339C63.2458 16.4995 63.1467 16.6501 63.0212 16.7771C62.8957 16.9041 62.7462 17.005 62.5814 17.0738C62.4166 17.1426 62.2398 17.178 62.0612 17.178H55.0909C55.0666 17.178 55.0432 17.1877 55.026 17.2049C55.0087 17.2222 54.9991 17.2455 54.9991 17.2699V21.0719C54.9991 21.0962 55.0087 21.1196 55.026 21.1368C55.0432 21.1541 55.0666 21.1637 55.0909 21.1637H63.5756C64.7733 21.1629 65.9217 20.6865 66.7683 19.8393C67.6149 18.9921 68.0904 17.8435 68.0904 16.6458V14.2854C68.0879 13.1134 67.6217 11.99 66.7935 11.1607C65.9654 10.3313 64.8427 9.86347 63.6707 9.85928Z" fill="#0E2C42"/>
<path d="M86.1528 9.89098L80.8808 15.8569C80.8728 15.8668 80.8627 15.8748 80.8512 15.8803C80.8396 15.8858 80.827 15.8886 80.8143 15.8886C80.8015 15.8886 80.7889 15.8858 80.7774 15.8803C80.7659 15.8748 80.7558 15.8668 80.7477 15.8569L75.4757 9.89098C75.4675 9.88124 75.4574 9.87337 75.4459 9.8679C75.4344 9.86243 75.4219 9.8595 75.4092 9.85929H70.0389C70.0216 9.85902 70.0045 9.86385 69.9899 9.87319C69.9752 9.88252 69.9636 9.89595 69.9566 9.91181C69.9495 9.92766 69.9472 9.94525 69.95 9.96238C69.9528 9.97952 69.9606 9.99545 69.9724 10.0082L77.9597 19.041C77.9736 19.058 77.9811 19.0792 77.9811 19.1012C77.9811 19.1231 77.9736 19.1444 77.9597 19.1614L69.9692 28.1942C69.9574 28.2069 69.9497 28.2229 69.9468 28.24C69.944 28.2571 69.9463 28.2747 69.9534 28.2906C69.9605 28.3064 69.9721 28.3199 69.9867 28.3292C70.0013 28.3385 70.0184 28.3434 70.0358 28.3431H75.4219C75.4344 28.3435 75.4468 28.3411 75.4583 28.3362C75.4698 28.3313 75.4801 28.3239 75.4884 28.3146L80.7477 22.3772C80.7558 22.3673 80.7659 22.3593 80.7774 22.3538C80.7889 22.3483 80.8015 22.3454 80.8143 22.3454C80.827 22.3454 80.8396 22.3483 80.8512 22.3538C80.8627 22.3593 80.8728 22.3673 80.8808 22.3772L86.1528 28.3146C86.1612 28.3239 86.1715 28.3313 86.183 28.3362C86.1944 28.3411 86.2069 28.3435 86.2194 28.3431H91.6055C91.6228 28.3434 91.6399 28.3385 91.6545 28.3292C91.6692 28.3199 91.6808 28.3064 91.6879 28.2906C91.6949 28.2747 91.6972 28.2571 91.6944 28.24C91.6916 28.2229 91.6838 28.2069 91.672 28.1942L83.6784 19.1614C83.6633 19.145 83.6549 19.1235 83.6549 19.1012C83.6549 19.0789 83.6633 19.0574 83.6784 19.041L91.6688 10.0082C91.6806 9.99545 91.6884 9.97952 91.6912 9.96238C91.694 9.94525 91.6918 9.92766 91.6847 9.91181C91.6776 9.89595 91.666 9.88252 91.6514 9.87319C91.6367 9.86385 91.6197 9.85902 91.6023 9.85929H86.2162C86.204 9.85994 86.1921 9.86308 86.1812 9.86854C86.1703 9.87399 86.1607 9.88163 86.1528 9.89098Z" fill="#0E2C42"/>
<path d="M109.047 9.85928H97.7995C96.6279 9.87487 95.5088 10.3472 94.6803 11.1757C93.8518 12.0042 93.3795 13.1233 93.3639 14.2949V23.9265C93.3795 25.098 93.8518 26.2172 94.6803 27.0457C95.5088 27.8742 96.6279 28.3465 97.7995 28.3621H109.047C110.222 28.3571 111.347 27.8882 112.178 27.0574C113.009 26.2267 113.478 25.1013 113.483 23.9265V14.2854C113.469 13.114 112.997 11.9944 112.168 11.1669C111.339 10.3394 110.218 9.86999 109.047 9.85928ZM108.787 22.9158C108.787 23.2519 108.654 23.5743 108.416 23.8119C108.178 24.0496 107.856 24.1831 107.52 24.1831H99.3139C98.9778 24.1831 98.6555 24.0496 98.4178 23.8119C98.1801 23.5743 98.0466 23.2519 98.0466 22.9158V15.2771C98.0466 14.9409 98.1801 14.6186 98.4178 14.3809C98.6555 14.1433 98.9778 14.0097 99.3139 14.0097H107.52C107.856 14.0097 108.178 14.1433 108.416 14.3809C108.654 14.6186 108.787 14.9409 108.787 15.2771V22.9158Z" fill="#0E2C42"/>
<path d="M132.213 9.77059C132.213 9.79387 132.203 9.81598 132.187 9.83245C132.17 9.84892 132.148 9.85852 132.125 9.85931H121.581C120.406 9.86431 119.28 10.3332 118.45 11.164C117.619 11.9947 117.15 13.1201 117.145 14.2949V23.9265C117.15 25.1014 117.619 26.2267 118.45 27.0574C119.28 27.8882 120.406 28.3571 121.581 28.3621H130.03C130.054 28.3613 130.076 28.3517 130.092 28.3353C130.109 28.3188 130.118 28.2967 130.119 28.2734V24.2655C130.119 24.2417 130.11 24.2188 130.093 24.2016C130.077 24.1845 130.054 24.1745 130.03 24.1736H123.19C122.832 24.1736 122.489 24.0314 122.236 23.7783C121.983 23.5252 121.84 23.1819 121.84 22.8239V15.3785C121.84 15.0205 121.983 14.6772 122.236 14.4241C122.489 14.171 122.832 14.0288 123.19 14.0288H132.137C132.161 14.0296 132.183 14.0392 132.199 14.0556C132.216 14.0721 132.225 14.0942 132.226 14.1175V28.2671C132.227 28.2909 132.237 28.3134 132.254 28.33C132.271 28.3465 132.294 28.3558 132.318 28.3558H136.823C136.843 28.3503 136.859 28.3386 136.871 28.3226C136.883 28.3066 136.89 28.2871 136.89 28.2671V3.68114C136.89 3.65678 136.88 3.63341 136.863 3.61617C136.846 3.59894 136.822 3.58926 136.798 3.58926H132.302C132.278 3.59009 132.256 3.60013 132.239 3.61727C132.223 3.63441 132.213 3.65731 132.213 3.68114V9.77059Z" fill="#0E2C42"/>
<path d="M145.761 9.85928H141.253C141.204 9.85928 141.164 9.899 141.164 9.948V28.2544C141.164 28.3034 141.204 28.3431 141.253 28.3431H145.761C145.81 28.3431 145.85 28.3034 145.85 28.2544V9.948C145.85 9.899 145.81 9.85928 145.761 9.85928Z" fill="#0E2C42"/>
<path d="M145.761 3.58926H141.253C141.204 3.58926 141.164 3.62898 141.164 3.67798V7.67002C141.164 7.71901 141.204 7.75873 141.253 7.75873H145.761C145.81 7.75873 145.85 7.71901 145.85 7.67002V3.67798C145.85 3.62898 145.81 3.58926 145.761 3.58926Z" fill="#0E2C42"/>
<path d="M149.823 14.2854V23.917C149.828 25.0918 150.297 26.2171 151.127 27.0479C151.958 27.8787 153.084 28.3476 154.258 28.3526H162.673C162.697 28.3526 162.72 28.3434 162.737 28.3268C162.754 28.3103 162.764 28.2877 162.765 28.2639V24.2655C162.765 24.2411 162.756 24.2178 162.738 24.2005C162.721 24.1833 162.698 24.1736 162.673 24.1736H155.858C155.5 24.1736 155.157 24.0314 154.904 23.7783C154.651 23.5252 154.509 23.1819 154.509 22.8239V15.3784C154.509 15.0205 154.651 14.6772 154.904 14.4241C155.157 14.1709 155.5 14.0288 155.858 14.0288H164.79C164.814 14.0287 164.836 14.038 164.854 14.0545C164.871 14.0711 164.881 14.0936 164.882 14.1175V28.9641C164.881 29.3223 164.738 29.6656 164.484 29.9186C164.231 30.1717 163.887 30.3138 163.529 30.3138H153.21C153.198 30.3138 153.186 30.3161 153.175 30.3208C153.163 30.3254 153.153 30.3321 153.145 30.3407C153.136 30.3492 153.129 30.3593 153.125 30.3705C153.12 30.3816 153.118 30.3936 153.118 30.4056V34.328C153.118 34.3399 153.12 34.3517 153.125 34.3627C153.129 34.3736 153.136 34.3836 153.145 34.3919C153.153 34.4001 153.164 34.4066 153.175 34.4109C153.186 34.4151 153.198 34.4171 153.21 34.4167H165.138C166.313 34.4117 167.438 33.9428 168.269 33.112C169.1 32.2812 169.569 31.1559 169.574 29.9811V9.95116C169.574 9.92679 169.564 9.90343 169.547 9.88619C169.53 9.86896 169.506 9.85928 169.482 9.85928H154.249C153.077 9.86676 151.956 10.3355 151.127 11.1639C150.299 11.9924 149.83 13.1138 149.823 14.2854Z" fill="#0E2C42"/>
<path d="M189.211 9.85928H177.967C176.795 9.87567 175.677 10.3482 174.848 11.1766C174.02 12.0049 173.547 13.1236 173.531 14.2949V23.9265C173.547 25.0978 174.02 26.2165 174.848 27.0448C175.677 27.8731 176.795 28.3457 177.967 28.3621H189.211C190.386 28.3571 191.511 27.8882 192.342 27.0574C193.173 26.2267 193.642 25.1013 193.647 23.9265V14.2854C193.634 13.1137 193.163 11.9937 192.333 11.166C191.504 10.3384 190.383 9.86918 189.211 9.85928ZM188.951 22.9158C188.951 23.2519 188.818 23.5743 188.58 23.8119C188.342 24.0496 188.02 24.1831 187.684 24.1831H179.484C179.148 24.1831 178.826 24.0496 178.588 23.8119C178.351 23.5743 178.217 23.2519 178.217 22.9158V15.2771C178.217 14.9409 178.351 14.6186 178.588 14.3809C178.826 14.1433 179.148 14.0097 179.484 14.0097H187.693C188.029 14.0097 188.352 14.1433 188.589 14.3809C188.827 14.6186 188.961 14.9409 188.961 15.2771L188.951 22.9158Z" fill="#0E2C42"/>
<defs>
<linearGradient id="paint0_linear_4246_5141" x1="20.601" y1="15.2676" x2="55.3571" y2="15.2676" gradientUnits="userSpaceOnUse">
<stop stop-color="#0E2C42"/>
<stop offset="0.07" stop-color="#0E3752"/>
<stop offset="0.17" stop-color="#0F4263"/>
<stop offset="0.31" stop-color="#0F4A6E"/>
<stop offset="0.49" stop-color="#0F4F75"/>
<stop offset="1" stop-color="#0F5077"/>
</linearGradient>
<linearGradient id="paint1_linear_4246_5141" x1="1.16667" y1="13.6359" x2="28.1415" y2="5.34132" gradientUnits="userSpaceOnUse">
<stop offset="0.07" stop-color="#87C2CD"/>
<stop offset="0.22" stop-color="#B4D6DA"/>
<stop offset="0.3" stop-color="#C7DFE0"/>
</linearGradient>
<linearGradient id="paint2_linear_4246_5141" x1="9.41056" y1="20.077" x2="30.9834" y2="20.077" gradientUnits="userSpaceOnUse">
<stop offset="0.04" stop-color="#1E7295"/>
<stop offset="0.06" stop-color="#237698"/>
<stop offset="0.14" stop-color="#398AA3"/>
<stop offset="0.24" stop-color="#4A99AC"/>
<stop offset="0.36" stop-color="#55A3B2"/>
<stop offset="0.53" stop-color="#5CA9B6"/>
<stop offset="1" stop-color="#5EABB7"/>
</linearGradient>
<linearGradient id="paint3_linear_4246_5141" x1="0.906868" y1="4.9136" x2="46.2387" y2="4.9136" gradientUnits="userSpaceOnUse">
<stop stop-color="#1E7295"/>
<stop offset="0.02" stop-color="#237698"/>
<stop offset="0.1" stop-color="#398AA3"/>
<stop offset="0.2" stop-color="#4A99AC"/>
<stop offset="0.33" stop-color="#55A3B2"/>
<stop offset="0.51" stop-color="#5CA9B6"/>
<stop offset="1" stop-color="#5EABB7"/>
</linearGradient>
</defs>
</svg>
