<svg width="124" height="68" viewBox="0 0 124 68" fill="none" xmlns="http://www.w3.org/2000/svg">
<g clip-path="url(#clip0_4246_5160)">
<path d="M41.352 55.771V67.547H47.679V65.796H43.497V55.771H41.352Z" fill="#374656"/>
<path d="M54.993 55.771H52.849V67.547H54.993V55.771Z" fill="#374656"/>
<path d="M68.805 55.771L66.358 62.151C65.982 63.097 65.713 63.884 65.481 64.564H65.446C65.197 63.864 64.927 63.081 64.588 62.169L62.123 55.769H59.783L64.588 67.617H66.321L71.128 55.769L68.805 55.771Z" fill="#374656"/>
<path d="M75.701 55.771V67.547H82.225V65.796H77.846V62.418H81.617V60.665H77.846V57.519H81.632L82.206 55.768L75.701 55.771Z" fill="#374656"/>
<path d="M58.061 48.476C58.0644 48.5787 58.0361 48.6799 57.98 48.766C57.9121 48.8544 57.822 48.9234 57.719 48.966C57.5595 49.0332 57.3911 49.0767 57.219 49.095C56.9452 49.1269 56.6696 49.1412 56.394 49.138C56.125 49.1409 55.8561 49.1266 55.589 49.095C55.4132 49.076 55.2408 49.0326 55.077 48.966C54.9715 48.9273 54.8802 48.8576 54.815 48.766C54.7661 48.6773 54.742 48.5772 54.745 48.476V19.766C54.7431 19.6617 54.7672 19.5586 54.815 19.466C54.8764 19.3673 54.9684 19.2915 55.077 19.25C55.241 19.1843 55.4133 19.1412 55.589 19.122C55.8561 19.0898 56.125 19.0754 56.394 19.079C56.6696 19.0751 56.9452 19.0895 57.219 19.122C57.3909 19.1406 57.5593 19.1837 57.719 19.25C57.8249 19.2954 57.9155 19.3704 57.98 19.466C58.0348 19.5563 58.0629 19.6603 58.061 19.766V48.476Z" fill="#374656"/>
<path d="M80.065 38.329C80.0792 39.7817 79.8639 41.2275 79.427 42.613C79.0355 43.858 78.3883 45.0075 77.527 45.988C76.651 46.9546 75.5676 47.7105 74.358 48.199C72.9543 48.7527 71.4546 49.0223 69.946 48.992C68.4958 49.0216 67.0524 48.7844 65.688 48.292C64.5323 47.8634 63.4946 47.1671 62.66 46.26C61.8301 45.3263 61.2156 44.2216 60.86 43.024C60.4435 41.6238 60.2412 40.1687 60.26 38.708C60.2458 37.2561 60.4573 35.8109 60.887 34.424C61.2725 33.1782 61.9177 32.0283 62.78 31.05C63.6516 30.086 64.7317 29.3335 65.938 28.85C67.3468 28.3017 68.8496 28.0357 70.361 28.067C71.8116 28.0371 73.2553 28.2744 74.62 28.767C75.7744 29.1954 76.811 29.891 77.645 30.797C78.4767 31.7324 79.0962 32.8367 79.461 34.034C79.8801 35.4261 80.0825 36.8744 80.061 38.328M76.299 38.561C76.3036 37.5801 76.203 36.6015 75.999 35.642C75.8242 34.7845 75.4915 33.967 75.018 33.231C74.549 32.5315 73.9059 31.9663 73.152 31.591C72.2361 31.1622 71.2317 30.9566 70.221 30.991C69.2631 30.9655 68.3116 31.153 67.435 31.54C66.6753 31.8909 66.0146 32.4249 65.512 33.094C64.9878 33.8073 64.6071 34.6156 64.391 35.474C64.1391 36.4538 64.0161 37.4623 64.025 38.474C64.0187 39.4623 64.1193 40.4483 64.325 41.415C64.4999 42.2722 64.8395 43.0872 65.325 43.815C65.8014 44.5089 66.4471 45.0696 67.201 45.444C68.1167 45.8734 69.1213 46.079 70.132 46.044C71.0865 46.0668 72.0343 45.879 72.908 45.494C73.6689 45.1456 74.3324 44.6154 74.84 43.95C75.3638 43.2421 75.7409 42.4367 75.949 41.581C76.1943 40.5916 76.3139 39.5753 76.305 38.556" fill="#374656"/>
<path d="M53.621 20.753C52.7423 19.9275 51.6679 19.3393 50.499 19.044C49.4546 18.7248 48.3571 18.6169 47.2706 18.7268C46.184 18.8367 45.1303 19.1621 44.171 19.684C43.7179 19.9484 43.3148 20.2902 42.98 20.694C42.4259 21.3924 42.0341 22.2054 41.833 23.074C41.5652 24.2144 41.4399 25.3837 41.46 26.555V28.555H38.239C38.1343 28.553 38.0308 28.5786 37.939 28.629C37.8431 28.6917 37.7685 28.782 37.725 28.888C37.661 29.0356 37.6179 29.1915 37.597 29.351C37.565 29.5796 37.5503 29.8102 37.553 30.041C37.5301 30.4223 37.5887 30.8041 37.725 31.161C37.7663 31.2635 37.8375 31.3513 37.9294 31.4128C38.0212 31.4743 38.1294 31.5068 38.24 31.506H41.461V48.506C41.4565 48.6094 41.4864 48.7114 41.546 48.796C41.6219 48.8878 41.7215 48.957 41.834 48.996C42.0096 49.0625 42.1932 49.1059 42.38 49.125C42.9499 49.1828 43.5241 49.1828 44.094 49.125C44.2809 49.1065 44.4646 49.0631 44.64 48.996C44.7529 48.9573 44.853 48.888 44.929 48.796C44.989 48.7115 45.0196 48.6096 45.016 48.506V31.506H50.569C50.6787 31.5032 50.7854 31.4693 50.8766 31.4082C50.9677 31.3471 51.0397 31.2614 51.084 31.161C51.2359 30.8082 51.3017 30.4243 51.276 30.041C51.2796 29.8099 51.2622 29.5789 51.224 29.351C51.1951 29.1905 51.1443 29.0347 51.073 28.888C51.025 28.7848 50.9513 28.6956 50.859 28.629C50.7713 28.5773 50.6707 28.5517 50.569 28.555H45.016V26.443C45.0068 25.7328 45.0563 25.023 45.164 24.321C45.2361 23.8199 45.4035 23.3372 45.657 22.899C45.8701 22.546 46.1834 22.2645 46.557 22.09C46.9835 21.9077 47.4443 21.8197 47.908 21.832C48.2493 21.8287 48.5899 21.8622 48.924 21.932C49.1825 21.9869 49.4371 22.0591 49.686 22.148C49.779 22.182 49.862 22.214 49.942 22.248L50.542 22.513C52.113 23.467 52.601 23 52.601 23L53.694 21.728C53.994 21.311 53.62 20.755 53.62 20.755" fill="#374656"/>
<path d="M79.937 45.578C79.9372 46.1621 80.1106 46.7331 80.4353 47.2188C80.7599 47.7044 81.2213 48.0829 81.761 48.3063C82.3007 48.5298 82.8946 48.5882 83.4676 48.4742C84.0405 48.3602 84.5667 48.0789 84.9798 47.6658C85.3929 47.2527 85.6742 46.7265 85.7882 46.1535C85.9022 45.5806 85.8438 44.9867 85.6203 44.447C85.3969 43.9073 85.0184 43.4459 84.5328 43.1212C84.0471 42.7966 83.4762 42.6232 82.892 42.623C82.5039 42.6227 82.1195 42.699 81.7609 42.8474C81.4022 42.9958 81.0764 43.2135 80.8019 43.4879C80.5275 43.7623 80.3098 44.0882 80.1614 44.4469C80.013 44.8055 79.9367 45.1899 79.937 45.578Z" fill="#374656"/>
<path d="M93.547 62.833H123.759V0.115997H0V62.833H30.233V60.726H2.12599V2.226H121.626V60.726H93.547V62.833Z" fill="#374656"/>
</g>
<defs>
<clipPath id="clip0_4246_5160">
<rect width="123.755" height="67.503" fill="white" transform="translate(0 0.115997)"/>
</clipPath>
</defs>
</svg>
