<svg width="141" height="45" viewBox="0 0 141 45" fill="none" xmlns="http://www.w3.org/2000/svg">
<mask id="mask0_4246_5200" style="mask-type:luminance" maskUnits="userSpaceOnUse" x="0" y="0" width="141" height="45">
<path d="M140.23 0.736694H0V44.0867H140.23V0.736694Z" fill="white"/>
</mask>
<g mask="url(#mask0_4246_5200)">
<path d="M22 6.5567L2.64999 18.2467C2.27073 18.4761 1.81587 18.5455 1.38548 18.4395C0.955082 18.3336 0.584406 18.061 0.354993 17.6817C0.125581 17.3024 0.0562255 16.8476 0.162183 16.4172C0.268141 15.9868 0.540734 15.6161 0.919993 15.3867L1.09999 15.2967L21.7 6.0667C21.7679 6.03886 21.8439 6.03783 21.9126 6.06382C21.9812 6.0898 22.0375 6.14086 22.07 6.2067C22.0948 6.26878 22.0974 6.33753 22.0774 6.40131C22.0573 6.46509 22.0159 6.51998 21.96 6.5567" fill="#FFA100"/>
<path d="M18.23 3.97677L2.47 11.4668C2.06952 11.6617 1.60801 11.6896 1.18699 11.5442C0.765975 11.3989 0.419936 11.0922 0.225002 10.6918C0.0300676 10.2913 0.00220626 9.82977 0.147547 9.40875C0.292888 8.98773 0.599525 8.64171 1 8.44676L1.25 8.35676L18 3.45676C18.0703 3.43811 18.145 3.4475 18.2085 3.48296C18.2719 3.51842 18.3191 3.57716 18.34 3.64676C18.3611 3.70937 18.3585 3.77753 18.3327 3.83835C18.3069 3.89916 18.2597 3.94842 18.2 3.97677" fill="#FFB500"/>
<path d="M20.07 12.1368L2.78999 25.1968C2.61761 25.3509 2.4151 25.4675 2.19529 25.5393C1.97548 25.611 1.74317 25.6364 1.51306 25.6137C1.28295 25.591 1.06005 25.5208 0.8585 25.4074C0.656946 25.2941 0.481122 25.1402 0.342163 24.9554C0.203205 24.7705 0.10414 24.5589 0.0512432 24.3338C-0.00165333 24.1087 -0.00722876 23.8751 0.03487 23.6477C0.0769688 23.4203 0.165824 23.2042 0.295809 23.013C0.425793 22.8217 0.594074 22.6596 0.789993 22.5368L0.999993 22.4168L19.8 11.6668C19.8623 11.6257 19.9384 11.611 20.0116 11.626C20.0847 11.641 20.1489 11.6844 20.19 11.7468C20.2311 11.8091 20.2458 11.8852 20.2308 11.9583C20.2158 12.0315 20.1723 12.0957 20.11 12.1368" fill="#FF8200"/>
<path d="M12 23.0167L2.94 32.3667C2.62713 32.6745 2.20622 32.8476 1.76731 32.8491C1.3284 32.8506 0.906349 32.6802 0.591451 32.3744C0.276554 32.0687 0.0938161 31.6518 0.0823324 31.2131C0.0708486 30.7743 0.231531 30.3485 0.530003 30.0267C0.616358 29.9449 0.71009 29.8712 0.810003 29.8067L11.66 22.5867C11.7178 22.5519 11.7862 22.5391 11.8526 22.5507C11.919 22.5623 11.9791 22.5975 12.0216 22.6498C12.0642 22.7021 12.0865 22.768 12.0843 22.8354C12.0822 22.9028 12.0558 22.9672 12.01 23.0167" fill="#FF6E00"/>
<path d="M8.48 32.2367L3.06 39.7367C2.79478 40.0988 2.39662 40.3406 1.95309 40.409C1.50957 40.4775 1.05702 40.367 0.694998 40.1017C0.332977 39.8365 0.0911409 39.4384 0.0226902 38.9948C-0.0457606 38.5513 0.0647812 38.0988 0.329998 37.7367C0.431807 37.5998 0.55309 37.4785 0.689998 37.3767L8.08 31.8667C8.10845 31.8433 8.14138 31.826 8.17677 31.8158C8.21217 31.8057 8.24927 31.8028 8.2858 31.8075C8.32233 31.8122 8.35752 31.8243 8.38919 31.8431C8.42087 31.8619 8.44837 31.8869 8.47 31.9167C8.50579 31.9662 8.52505 32.0257 8.52505 32.0867C8.52505 32.1478 8.50579 32.2073 8.47 32.2567" fill="#FF5900"/>
<path d="M13.1 1.27675L2.27 5.33675C2.06084 5.42946 1.83494 5.47847 1.60617 5.48077C1.37739 5.48308 1.15056 5.43863 0.939573 5.35016C0.728586 5.26168 0.537893 5.13105 0.379185 4.96626C0.220478 4.80147 0.0971014 4.606 0.0166198 4.39184C-0.0638618 4.17768 -0.0997522 3.94933 -0.088851 3.72081C-0.0779498 3.49228 -0.0204866 3.26839 0.0800153 3.06286C0.180517 2.85733 0.32194 2.67449 0.495612 2.52556C0.669285 2.37663 0.871547 2.26474 1.09 2.19675C1.21493 2.14796 1.34631 2.11764 1.48 2.10675L13 0.736755C13.0368 0.732597 13.0741 0.735784 13.1096 0.746131C13.1452 0.756477 13.1784 0.773777 13.2072 0.79703C13.236 0.820282 13.26 0.849024 13.2776 0.881591C13.2953 0.914158 13.3063 0.949902 13.31 0.986754C13.3145 1.04792 13.2995 1.10893 13.2672 1.16104C13.2348 1.21315 13.1868 1.25366 13.13 1.27675" fill="#FFD117"/>
<path d="M37.48 25.7367C37.5018 24.9377 37.2091 24.1621 36.6649 23.5768C36.1207 22.9914 35.3684 22.6431 34.57 22.6067H32.24V28.7067H34.57C35.3499 28.6833 36.0901 28.3569 36.6334 27.7968C37.1767 27.2367 37.4803 26.487 37.48 25.7067V25.7367ZM32.24 38.7367H28.24V19.0367H34.54C35.4475 18.9764 36.3576 19.1064 37.2119 19.4183C38.0663 19.7302 38.8461 20.2171 39.5013 20.8479C40.1565 21.4787 40.6728 22.2393 41.017 23.0812C41.3611 23.9231 41.5257 24.8276 41.5 25.7367C41.5 29.0667 39.21 32.2867 34.59 32.2867H32.24V38.7367Z" fill="#000F4B"/>
<path d="M51.77 34.8768V32.6368C50.9824 32.3034 50.1353 32.1333 49.28 32.1368C47.83 32.1368 46.46 32.6668 46.43 33.9768C46.37 36.5868 50.35 36.3568 51.77 34.8768ZM52.5 38.7368L52 37.4468C51.5792 37.9424 51.055 38.3399 50.4641 38.6111C49.8733 38.8824 49.2301 39.0208 48.58 39.0168C44.86 39.0168 42.88 36.7768 42.88 34.0968C42.88 30.8768 45.98 29.2568 49.03 29.3068C49.9619 29.3373 50.8818 29.5267 51.75 29.8668C51.7688 29.5012 51.7104 29.1357 51.5788 28.7941C51.4471 28.4525 51.245 28.1424 50.9856 27.884C50.7263 27.6255 50.4155 27.4246 50.0734 27.2941C49.7313 27.1637 49.3656 27.1067 49 27.1268C47.6141 27.0875 46.2517 27.4902 45.11 28.2768L43.82 25.8968C45.3716 24.6355 47.3324 23.9879 49.33 24.0768C52.58 24.0768 55.6 25.8068 55.6 29.9568V38.7368H52.5Z" fill="#000F4B"/>
<path d="M61.54 24.5267L62.1 25.7867C62.5589 25.2508 63.1434 24.837 63.8013 24.5822C64.4591 24.3275 65.1699 24.2397 65.87 24.3267C66.6498 24.3562 67.4161 24.5399 68.1245 24.8671C68.833 25.1943 69.4696 25.6586 69.9977 26.2332C70.5257 26.8077 70.9348 27.4812 71.2012 28.2147C71.4677 28.9482 71.5862 29.7271 71.55 30.5067V38.7367H67.72V30.7367C67.72 27.9167 64.56 26.7367 62.24 28.2467V38.7367H58.4V24.5267H61.54Z" fill="#000F4B"/>
<path d="M81.12 35.6068C81.6296 35.6013 82.1327 35.4916 82.5983 35.2846C83.064 35.0776 83.4825 34.7775 83.828 34.403C84.1736 34.0284 84.4389 33.5871 84.6078 33.1063C84.7767 32.6255 84.8455 32.1152 84.81 31.6068C84.8609 31.0952 84.8029 30.5786 84.6398 30.091C84.4766 29.6035 84.212 29.156 83.8634 28.7781C83.5148 28.4002 83.09 28.1004 82.6172 27.8985C82.1443 27.6967 81.6341 27.5972 81.12 27.6068C80.6071 27.61 80.1002 27.7176 79.6301 27.923C79.1601 28.1284 78.7368 28.4273 78.386 28.8015C78.0351 29.1757 77.7641 29.6174 77.5895 30.0997C77.4148 30.582 77.3401 31.0948 77.37 31.6068C77.3472 32.1173 77.4268 32.6271 77.6041 33.1063C77.7813 33.5855 78.0526 34.0243 78.4021 34.3971C78.7515 34.7698 79.172 35.0689 79.6388 35.2766C80.1056 35.4844 80.6092 35.5967 81.12 35.6068ZM81.12 39.0968C80.1291 39.1286 79.1421 38.9573 78.2198 38.5935C77.2974 38.2298 76.4593 37.6812 75.7568 36.9815C75.0543 36.2819 74.5024 35.4459 74.1349 34.525C73.7675 33.6042 73.5922 32.6179 73.62 31.6268C73.62 29.6377 74.4102 27.7301 75.8167 26.3235C77.2232 24.917 79.1309 24.1268 81.12 24.1268C83.1091 24.1268 85.0168 24.917 86.4233 26.3235C87.8298 27.7301 88.62 29.6377 88.62 31.6268C88.6535 32.6168 88.4831 33.6031 88.1195 34.5246C87.756 35.446 87.207 36.2829 86.5065 36.9833C85.8061 37.6838 84.9692 38.2328 84.0478 38.5964C83.1263 38.9599 82.14 39.1303 81.15 39.0968" fill="#000F4B"/>
<path d="M93.91 24.3867L94.21 25.8667C94.5989 25.3946 95.08 25.0068 95.6239 24.7269C96.1678 24.447 96.763 24.281 97.3732 24.2388C97.9834 24.1967 98.5958 24.2794 99.1729 24.482C99.7501 24.6845 100.28 25.0025 100.73 25.4167L99.11 28.2967C97.32 27.1267 94.58 27.5467 94.58 29.8667V38.7367H90.8V24.3867H93.91Z" fill="#000F4B"/>
<path d="M109.21 34.8768V32.6368C108.422 32.3042 107.575 32.1341 106.72 32.1368C105.26 32.1368 103.89 32.6668 103.87 33.9768C103.81 36.5868 107.78 36.3568 109.21 34.8768ZM109.94 38.7068L109.43 37.4468C109.01 37.9454 108.484 38.3447 107.891 38.6161C107.298 38.8875 106.652 39.0244 106 39.0168C102.28 39.0168 100.29 36.7768 100.29 34.0968C100.29 30.8768 103.4 29.2568 106.45 29.3068C107.379 29.3372 108.295 29.5267 109.16 29.8668C109.181 29.4963 109.123 29.1255 108.989 28.7795C108.855 28.4334 108.648 28.1201 108.383 27.8605C108.117 27.6009 107.8 27.4012 107.451 27.2746C107.102 27.1481 106.73 27.0977 106.36 27.1268C104.977 27.0854 103.617 27.4885 102.48 28.2768L101.19 25.8968C102.742 24.6355 104.702 23.9879 106.7 24.0768C109.94 24.0768 112.97 25.8068 112.97 29.9568V38.7368L109.94 38.7068Z" fill="#000F4B"/>
<path d="M121.8 34.7367L122.47 31.6267L124.99 24.5267H129.13L122.72 41.1467C121.63 43.9367 118.55 44.3867 116.23 43.9367V41.0567C118.69 41.3067 119.23 40.8667 119.84 38.3967C118.11 34.1767 115.67 28.7167 113.97 24.5267H118.11L121 31.6567L121.64 34.7367H121.8Z" fill="#000F4B"/>
<path d="M135.23 29.9268C137.69 30.3468 140.23 31.6868 140.23 34.5168C140.23 37.8668 137.05 39.0768 134.7 39.0768C133.644 39.08 132.603 38.8301 131.663 38.3482C130.724 37.8663 129.913 37.1663 129.3 36.3068L131.3 34.1168C131.734 34.6081 132.264 35.0053 132.857 35.2839C133.451 35.5625 134.095 35.7167 134.75 35.7368C135.51 35.7368 136.46 35.2368 136.46 34.4868C136.46 33.4868 135.37 33.3068 134.64 33.1668C132.32 32.7468 129.91 31.3168 129.88 28.5768C129.88 25.6668 132.49 24.1068 135.2 24.1068C136.113 24.121 137.012 24.3279 137.839 24.714C138.667 25.1 139.403 25.6564 140 26.3468L138 28.4168C137.208 27.7941 136.237 27.4434 135.23 27.4168C134.59 27.4168 133.55 27.8968 133.55 28.7868C133.55 29.2668 134.03 29.6568 134.5 29.7868C134.78 29.8668 135.04 29.8968 135.29 29.9568" fill="#000F4B"/>
</g>
</svg>
