<svg width="32" height="32" viewBox="0 0 32 32" fill="none" xmlns="http://www.w3.org/2000/svg">
<rect width="32" height="32" rx="6" fill="#000a1f"/>
<g transform="translate(1.5, 0)">
<path d="M28.8489 15.3H28.3699C28.2787 15.3 28.2103 15.375 28.2103 15.475V30.975H0.79819V0.875H28.598C28.6892 0.875 28.7576 0.799998 28.7576 0.699998V0.175003C28.7576 0.075003 28.6892 0 28.598 0H0.159637C0.0684156 0 0 0.075003 0 0.175003V31.625C0 31.7 0.0456095 31.775 0.0912203 31.8C0.114026 31.8 0.136832 31.8 0.159637 31.8C0.205248 31.8 28.8033 31.8 28.8489 31.8C28.8717 31.8 28.8945 31.8 28.9173 31.8C28.9857 31.775 29.0085 31.7 29.0085 31.625V15.475C29.0085 15.375 28.9401 15.3 28.8489 15.3Z" fill="white"/>
<path d="M25.0404 4.8001V4.2751C25.0404 4.1751 24.972 4.1001 24.8808 4.1001H3.89987C3.80865 4.1001 3.74023 4.1751 3.74023 4.2751V27.5251C3.74023 27.6001 3.78585 27.6751 3.83146 27.7001C3.85426 27.7001 3.87707 27.7001 3.89987 27.7001C3.94548 27.7001 25.0632 27.7001 25.1088 27.7001C25.1316 27.7001 25.1544 27.7001 25.1772 27.7001C25.2457 27.6751 25.2685 27.6001 25.2685 27.5251V15.5001C25.2685 15.4001 25.2001 15.3251 25.1088 15.3251H24.6299C24.5387 15.3251 24.4703 15.4001 24.4703 15.5001V26.8751H4.56123V4.9751H24.9036C24.972 4.9751 25.0404 4.9001 25.0404 4.8001Z" fill="white"/>
<path d="M8.27866 9.0752H21.1409C21.2321 9.0752 21.3006 9.00022 21.3006 8.90022V8.37522C21.3006 8.27522 21.2321 8.2002 21.1409 8.2002H7.64011C7.54889 8.2002 7.48047 8.27522 7.48047 8.37522V23.4502C7.48047 23.5252 7.52608 23.6002 7.57169 23.6252C7.5945 23.6252 7.6173 23.6252 7.64011 23.6252C7.68572 23.6252 21.3462 23.6252 21.3918 23.6252C21.4146 23.6252 21.4374 23.6252 21.4602 23.6252C21.5286 23.6002 21.5514 23.5252 21.5514 23.4502V15.4752C21.5514 15.3752 21.483 15.3002 21.3918 15.3002H20.9129C20.8216 15.3002 20.7532 15.3752 20.7532 15.4752V22.8002H8.27866V9.0752Z" fill="white"/>
</g>
</svg>
