<svg width="528" height="109" viewBox="0 0 528 109" fill="none" xmlns="http://www.w3.org/2000/svg">
<path d="M139.406 34.7261H154.963V37.3709C154.963 47.7676 149.555 54.6076 140.238 54.6076C130.171 54.6076 123.932 46.6732 123.932 36.6413C123.932 26.5182 130.338 18.584 140.404 18.584C148.474 18.584 152.051 23.0526 152.051 23.0526L149.472 26.7006C149.472 26.7006 146.144 23.0526 140.404 23.0526C133 23.0526 128.341 29.0718 128.341 36.6413C128.341 44.1196 132.75 50.1387 140.154 50.1387C146.311 50.1387 150.387 45.7612 150.553 39.3773V38.9213H139.489V34.7261H139.406Z" fill="white"/>
<path d="M198.969 30.9873C198.969 36.4593 196.224 40.1072 191.898 41.7488V42.0224L200.051 52.9663V53.8783H195.309L187.073 42.6608H177.505V53.8783H173.179V19.4051H186.324C194.144 19.4051 198.969 23.509 198.969 30.9873ZM186.241 23.6914H177.505V38.3745H186.657C191.232 38.3745 194.477 36.0945 194.477 31.0785C194.477 26.1538 191.232 23.6914 186.241 23.6914Z" fill="white"/>
<path d="M239.318 38.922H222.763V49.501H241.814V53.7874H218.437V19.3142H241.814V23.6005H222.763V34.6356H239.318V38.922Z" fill="white"/>
<path d="M282.328 38.9211H265.772V49.5002H284.824V53.7866H261.446V19.3133H284.824V23.5997H265.772V34.6348H282.328V38.9211Z" fill="white"/>
<path d="M332.075 53.8783H330.91L308.614 29.1633V53.8783H304.288V19.4051H305.453L327.665 43.8464V19.4051H331.992V53.8783H332.075Z" fill="white"/>
<path d="M351.965 19.4051H375.342V23.6914H356.291V34.7265H373.013V38.9216H356.291V53.8783H351.965V19.4051Z" fill="white"/>
<path d="M397.633 53.8783H393.307V19.4051H397.633V53.8783Z" fill="white"/>
<path d="M437.484 38.922H420.928V49.501H439.979V53.7874H416.602V19.3142H439.979V23.6005H420.928V34.6356H437.484V38.922Z" fill="white"/>
<path d="M459.031 53.8783V19.4051H463.357V49.5007H481.327V53.7871H459.031V53.8783Z" fill="white"/>
<path d="M510.279 53.8783H499.048V19.4051H510.279C520.262 19.4051 527.001 26.1538 527.001 36.6417C527.001 47.1296 520.346 53.8783 510.279 53.8783ZM503.374 49.5007H510.03C517.184 49.5007 522.675 44.7584 522.675 36.5505C522.675 28.3426 517.267 23.6002 510.03 23.6002H503.374V49.5007Z" fill="white"/>
<path d="M139.406 34.7261H154.963V37.3709C154.963 47.7676 149.555 54.6076 140.238 54.6076C130.171 54.6076 123.932 46.6732 123.932 36.6413C123.932 26.5182 130.338 18.584 140.404 18.584C148.474 18.584 152.051 23.0526 152.051 23.0526L149.472 26.7006C149.472 26.7006 146.144 23.0526 140.404 23.0526C133 23.0526 128.341 29.0718 128.341 36.6413C128.341 44.1196 132.75 50.1387 140.154 50.1387C146.311 50.1387 150.387 45.7612 150.553 39.3773V38.9213H139.489V34.7261H139.406Z" stroke="white" stroke-width="1.44684" stroke-miterlimit="10"/>
<path d="M198.969 30.9873C198.969 36.4593 196.224 40.1072 191.898 41.7488V42.0224L200.051 52.9663V53.8783H195.309L187.073 42.6608H177.505V53.8783H173.179V19.4051H186.324C194.144 19.4051 198.969 23.509 198.969 30.9873ZM186.241 23.6914H177.505V38.3745H186.657C191.232 38.3745 194.477 36.0945 194.477 31.0785C194.477 26.1538 191.232 23.6914 186.241 23.6914Z" stroke="white" stroke-width="1.44684" stroke-miterlimit="10"/>
<path d="M239.318 38.922H222.763V49.501H241.814V53.7874H218.437V19.3142H241.814V23.6005H222.763V34.6356H239.318V38.922Z" stroke="white" stroke-width="1.44684" stroke-miterlimit="10"/>
<path d="M282.328 38.9211H265.772V49.5002H284.824V53.7866H261.446V19.3133H284.824V23.5997H265.772V34.6348H282.328V38.9211Z" stroke="white" stroke-width="1.44684" stroke-miterlimit="10"/>
<path d="M332.075 53.8783H330.91L308.614 29.1633V53.8783H304.288V19.4051H305.453L327.665 43.8464V19.4051H331.992V53.8783H332.075Z" stroke="white" stroke-width="1.44684" stroke-miterlimit="10"/>
<path d="M351.965 19.4051H375.342V23.6914H356.291V34.7265H373.013V38.9216H356.291V53.8783H351.965V19.4051Z" stroke="white" stroke-width="1.44684" stroke-miterlimit="10"/>
<path d="M397.633 53.8783H393.307V19.4051H397.633V53.8783Z" stroke="white" stroke-width="1.44684" stroke-miterlimit="10"/>
<path d="M437.484 38.922H420.928V49.501H439.979V53.7874H416.602V19.3142H439.979V23.6005H420.928V34.6356H437.484V38.922Z" stroke="white" stroke-width="1.44684" stroke-miterlimit="10"/>
<path d="M459.031 53.8783V19.4051H463.357V49.5007H481.327V53.7871H459.031V53.8783Z" stroke="white" stroke-width="1.44684" stroke-miterlimit="10"/>
<path d="M510.279 53.8783H499.048V19.4051H510.279C520.262 19.4051 527.001 26.1538 527.001 36.6417C527.001 47.1296 520.346 53.8783 510.279 53.8783ZM503.374 49.5007H510.03C517.184 49.5007 522.675 44.7584 522.675 36.5505C522.675 28.3426 517.267 23.6002 510.03 23.6002H503.374V49.5007Z" stroke="white" stroke-width="1.44684" stroke-miterlimit="10"/>
<path d="M125.393 90.0723V73.8122H131.965C132.123 73.8122 132.319 73.8198 132.552 73.8348C132.786 73.8424 133.008 73.8649 133.218 73.9026C134.122 74.0456 134.875 74.3542 135.477 74.8285C136.087 75.3027 136.542 75.9012 136.843 76.6239C137.144 77.3465 137.295 78.1445 137.295 79.0177C137.295 79.8985 137.144 80.7002 136.843 81.4228C136.542 82.1455 136.087 82.744 135.477 83.2182C134.875 83.6925 134.122 84.0011 133.218 84.1441C133.008 84.1742 132.782 84.1968 132.541 84.2119C132.308 84.2269 132.116 84.2345 131.965 84.2345H127.753V90.0723H125.393ZM127.753 81.9987H131.875C132.025 81.9987 132.191 81.9912 132.372 81.9761C132.56 81.9611 132.737 81.9347 132.902 81.8971C133.384 81.7842 133.772 81.5772 134.065 81.276C134.359 80.9674 134.57 80.6136 134.698 80.2146C134.826 79.8157 134.89 79.4167 134.89 79.0177C134.89 78.6187 134.826 78.2235 134.698 77.8321C134.57 77.4331 134.359 77.0831 134.065 76.782C133.772 76.4733 133.384 76.2625 132.902 76.1496C132.737 76.1045 132.56 76.0743 132.372 76.0593C132.191 76.0442 132.025 76.0367 131.875 76.0367H127.753V81.9987ZM147.009 90.0723L152.293 73.8122H155.692L160.977 90.0723H158.526L153.66 75.235H154.27L149.459 90.0723H147.009ZM149.753 86.4025V84.1893H158.244V86.4025H149.753ZM172.713 90.0723V73.8122H179.285C179.443 73.8122 179.639 73.8198 179.872 73.8348C180.106 73.8424 180.328 73.8649 180.539 73.9026C181.442 74.0456 182.195 74.3542 182.797 74.8285C183.407 75.3027 183.862 75.9012 184.163 76.6239C184.464 77.3465 184.615 78.1445 184.615 79.0177C184.615 80.3125 184.284 81.4304 183.621 82.3713C182.959 83.3048 181.965 83.8882 180.64 84.1215L179.68 84.2345H175.073V90.0723H172.713ZM182.221 90.0723L179.014 83.4553L181.397 82.8456L184.92 90.0723H182.221ZM175.073 81.9987H179.195C179.345 81.9987 179.511 81.9912 179.692 81.9761C179.88 81.9611 180.057 81.9347 180.222 81.8971C180.704 81.7842 181.092 81.5772 181.385 81.276C181.679 80.9674 181.89 80.6136 182.018 80.2146C182.146 79.8157 182.21 79.4167 182.21 79.0177C182.21 78.6187 182.146 78.2235 182.018 77.8321C181.89 77.4331 181.679 77.0831 181.385 76.782C181.092 76.4733 180.704 76.2625 180.222 76.1496C180.057 76.1045 179.88 76.0743 179.692 76.0593C179.511 76.0442 179.345 76.0367 179.195 76.0367H175.073V81.9987ZM201.166 90.0723V76.0367H195.757V73.8122H208.935V76.0367H203.526V90.0723H201.166ZM220.453 90.0723V73.8122H222.846L230.852 85.8943V73.8122H233.246V90.0723H230.852L222.846 77.9789V90.0723H220.453ZM246.108 90.0723V73.8122H256.497V76.0367H248.468V80.5985H255.142V82.823H248.468V87.8478H256.497V90.0723H246.108ZM268.919 90.0723V73.8122H275.491C275.649 73.8122 275.845 73.8198 276.078 73.8348C276.312 73.8424 276.534 73.8649 276.745 73.9026C277.648 74.0456 278.401 74.3542 279.003 74.8285C279.613 75.3027 280.068 75.9012 280.369 76.6239C280.67 77.3465 280.821 78.1445 280.821 79.0177C280.821 80.3125 280.49 81.4304 279.827 82.3713C279.165 83.3048 278.171 83.8882 276.846 84.1215L275.886 84.2345H271.279V90.0723H268.919ZM278.427 90.0723L275.22 83.4553L277.603 82.8456L281.126 90.0723H278.427ZM271.279 81.9987H275.401C275.551 81.9987 275.717 81.9912 275.898 81.9761C276.086 81.9611 276.263 81.9347 276.428 81.8971C276.91 81.7842 277.298 81.5772 277.591 81.276C277.885 80.9674 278.096 80.6136 278.224 80.2146C278.352 79.8157 278.416 79.4167 278.416 79.0177C278.416 78.6187 278.352 78.2235 278.224 77.8321C278.096 77.4331 277.885 77.0831 277.591 76.782C277.298 76.4733 276.91 76.2625 276.428 76.1496C276.263 76.1045 276.086 76.0743 275.898 76.0593C275.717 76.0442 275.551 76.0367 275.401 76.0367H271.279V81.9987ZM299.213 90.411C298.046 90.411 296.992 90.2115 296.051 89.8126C295.117 89.4061 294.346 88.8302 293.736 88.0849C293.134 87.3322 292.742 86.4401 292.562 85.4088L295.023 85.0362C295.272 86.0298 295.791 86.8052 296.582 87.3623C297.372 87.9118 298.294 88.1866 299.348 88.1866C300.003 88.1866 300.605 88.0849 301.155 87.8817C301.704 87.6709 302.145 87.3736 302.476 86.9896C302.815 86.5982 302.984 86.1315 302.984 85.5895C302.984 85.2959 302.931 85.0362 302.826 84.8103C302.728 84.5845 302.589 84.3888 302.408 84.2232C302.235 84.05 302.02 83.9032 301.765 83.7828C301.516 83.6548 301.241 83.5457 300.94 83.4553L296.774 82.2245C296.367 82.1041 295.953 81.9498 295.531 81.7616C295.11 81.5659 294.722 81.3137 294.368 81.005C294.022 80.6889 293.74 80.3012 293.522 79.842C293.303 79.3753 293.194 78.8107 293.194 78.1482C293.194 77.1471 293.45 76.3002 293.962 75.6076C294.481 74.9075 295.181 74.3806 296.062 74.0268C296.943 73.6654 297.929 73.4848 299.021 73.4848C300.12 73.4998 301.102 73.6956 301.968 74.0719C302.841 74.4483 303.564 74.9903 304.136 75.698C304.715 76.398 305.114 77.2487 305.333 78.2499L302.803 78.679C302.69 78.0692 302.45 77.546 302.081 77.1094C301.712 76.6653 301.26 76.3265 300.726 76.0932C300.191 75.8523 299.612 75.7281 298.987 75.7205C298.385 75.7055 297.831 75.7958 297.327 75.9915C296.83 76.1873 296.431 76.462 296.13 76.8158C295.836 77.1696 295.69 77.5761 295.69 78.0353C295.69 78.487 295.821 78.8521 296.085 79.1306C296.348 79.4092 296.672 79.6312 297.056 79.7968C297.447 79.9549 297.835 80.0867 298.219 80.192L301.223 81.0389C301.599 81.1443 302.024 81.2873 302.498 81.468C302.98 81.6411 303.443 81.8858 303.887 82.202C304.339 82.5181 304.712 82.9397 305.005 83.4666C305.299 83.986 305.446 84.641 305.446 85.4314C305.446 86.2519 305.28 86.9746 304.949 87.5994C304.618 88.2167 304.162 88.7361 303.582 89.1576C303.01 89.5717 302.348 89.8841 301.595 90.0948C300.842 90.3056 300.048 90.411 299.213 90.411ZM331.795 90.0723V73.8122H341.427V76.1722H334.155V80.7566H340.072V83.1279H334.155V90.0723H331.795ZM359.958 90.411C358.332 90.411 356.947 90.0572 355.803 89.3496C354.659 88.6345 353.782 87.6408 353.172 86.3686C352.57 85.0964 352.269 83.6209 352.269 81.9423C352.269 80.2636 352.57 78.7881 353.172 77.5159C353.782 76.2437 354.659 75.2538 355.803 74.5462C356.947 73.8311 358.332 73.4735 359.958 73.4735C361.577 73.4735 362.958 73.8311 364.103 74.5462C365.254 75.2538 366.131 76.2437 366.734 77.5159C367.336 78.7881 367.637 80.2636 367.637 81.9423C367.637 83.6209 367.336 85.0964 366.734 86.3686C366.131 87.6408 365.254 88.6345 364.103 89.3496C362.958 90.0572 361.577 90.411 359.958 90.411ZM359.958 88.164C361.11 88.179 362.066 87.9268 362.827 87.4074C363.594 86.8805 364.17 86.1503 364.554 85.2168C364.938 84.2759 365.13 83.1843 365.13 81.9423C365.13 80.7002 364.938 79.6162 364.554 78.6902C364.17 77.7568 363.594 77.0304 362.827 76.511C362.066 75.9915 361.11 75.7281 359.958 75.7205C358.807 75.7055 357.847 75.9577 357.079 76.4771C356.319 76.9965 355.747 77.7267 355.363 78.6677C354.979 79.6086 354.783 80.7002 354.776 81.9423C354.768 83.1843 354.956 84.2721 355.34 85.2055C355.724 86.1315 356.3 86.8541 357.068 87.3736C357.843 87.893 358.807 88.1564 359.958 88.164ZM379.6 90.0723V73.8122H386.172C386.33 73.8122 386.526 73.8198 386.759 73.8348C386.992 73.8424 387.214 73.8649 387.425 73.9026C388.329 74.0456 389.081 74.3542 389.684 74.8285C390.293 75.3027 390.749 75.9012 391.05 76.6239C391.351 77.3465 391.501 78.1445 391.501 79.0177C391.501 80.3125 391.17 81.4304 390.508 82.3713C389.845 83.3048 388.852 83.8882 387.527 84.1215L386.567 84.2345H381.96V90.0723H379.6ZM389.108 90.0723L385.901 83.4553L388.283 82.8456L391.806 90.0723H389.108ZM381.96 81.9987H386.081C386.232 81.9987 386.398 81.9912 386.578 81.9761C386.766 81.9611 386.943 81.9347 387.109 81.8971C387.591 81.7842 387.978 81.5772 388.272 81.276C388.566 80.9674 388.776 80.6136 388.904 80.2146C389.032 79.8157 389.096 79.4167 389.096 79.0177C389.096 78.6187 389.032 78.2235 388.904 77.8321C388.776 77.4331 388.566 77.0831 388.272 76.782C387.978 76.4733 387.591 76.2625 387.109 76.1496C386.943 76.1045 386.766 76.0743 386.578 76.0593C386.398 76.0442 386.232 76.0367 386.081 76.0367H381.96V81.9987ZM424.125 90.411C422.958 90.411 421.904 90.2115 420.963 89.8126C420.03 89.4061 419.258 88.8302 418.649 88.0849C418.046 87.3322 417.655 86.4401 417.474 85.4088L419.936 85.0362C420.184 86.0298 420.704 86.8052 421.494 87.3623C422.285 87.9118 423.207 88.1866 424.261 88.1866C424.916 88.1866 425.518 88.0849 426.067 87.8817C426.617 87.6709 427.057 87.3736 427.388 86.9896C427.727 86.5982 427.897 86.1315 427.897 85.5895C427.897 85.2959 427.844 85.0362 427.738 84.8103C427.641 84.5845 427.501 84.3888 427.321 84.2232C427.147 84.05 426.933 83.9032 426.677 83.7828C426.429 83.6548 426.154 83.5457 425.853 83.4553L421.686 82.2245C421.28 82.1041 420.866 81.9498 420.444 81.7616C420.022 81.5659 419.635 81.3137 419.281 81.005C418.935 80.6889 418.652 80.3012 418.434 79.842C418.216 79.3753 418.107 78.8107 418.107 78.1482C418.107 77.1471 418.363 76.3002 418.874 75.6076C419.394 74.9075 420.094 74.3806 420.975 74.0268C421.855 73.6654 422.842 73.4848 423.933 73.4848C425.032 73.4998 426.015 73.6956 426.88 74.0719C427.753 74.4483 428.476 74.9903 429.048 75.698C429.628 76.398 430.027 77.2487 430.245 78.2499L427.716 78.679C427.603 78.0692 427.362 77.546 426.993 77.1094C426.624 76.6653 426.173 76.3265 425.638 76.0932C425.104 75.8523 424.524 75.7281 423.899 75.7205C423.297 75.7055 422.744 75.7958 422.239 75.9915C421.743 76.1873 421.344 76.462 421.042 76.8158C420.749 77.1696 420.602 77.5761 420.602 78.0353C420.602 78.487 420.734 78.8521 420.997 79.1306C421.261 79.4092 421.584 79.6312 421.968 79.7968C422.36 79.9549 422.748 80.0867 423.131 80.192L426.135 81.0389C426.511 81.1443 426.937 81.2873 427.411 81.468C427.893 81.6411 428.356 81.8858 428.8 82.202C429.252 82.5181 429.624 82.9397 429.918 83.4666C430.211 83.986 430.358 84.641 430.358 85.4314C430.358 86.2519 430.192 86.9746 429.861 87.5994C429.53 88.2167 429.075 88.7361 428.495 89.1576C427.923 89.5717 427.26 89.8841 426.508 90.0948C425.755 90.3056 424.961 90.411 424.125 90.411ZM449.262 90.411C447.636 90.411 446.25 90.0572 445.106 89.3496C443.962 88.6345 443.085 87.6408 442.475 86.3686C441.873 85.0964 441.572 83.6209 441.572 81.9423C441.572 80.2636 441.873 78.7881 442.475 77.5159C443.085 76.2437 443.962 75.2538 445.106 74.5462C446.25 73.8311 447.636 73.4735 449.262 73.4735C451.136 73.4735 452.687 73.9477 453.914 74.8962C455.148 75.8447 456.007 77.1207 456.488 78.7241L454.094 79.3677C453.778 78.2311 453.214 77.339 452.401 76.6916C451.595 76.0442 450.549 75.7205 449.262 75.7205C448.11 75.7205 447.15 75.9802 446.382 76.4997C445.614 77.0191 445.035 77.7455 444.643 78.679C444.259 79.6124 444.067 80.7002 444.067 81.9423C444.06 83.1843 444.248 84.2721 444.632 85.2055C445.023 86.139 445.603 86.8654 446.371 87.3848C447.146 87.9043 448.11 88.164 449.262 88.164C450.549 88.164 451.595 87.8403 452.401 87.1929C453.214 86.538 453.778 85.6459 454.094 84.5168L456.488 85.1604C456.007 86.7638 455.148 88.0398 453.914 88.9883C452.687 89.9368 451.136 90.411 449.262 90.411ZM467.112 90.0723L472.397 73.8122H475.796L481.08 90.0723H478.63L473.763 75.235H474.373L469.563 90.0723H467.112ZM469.856 86.4025V84.1893H478.348V86.4025H469.856ZM493.043 90.0723V73.8122H495.403V87.8478H502.765V90.0723H493.043ZM514.393 90.0723V73.8122H524.781V76.0367H516.753V80.5985H523.426V82.823H516.753V87.8478H524.781V90.0723H514.393Z" fill="white"/>
<path d="M85.0954 17.1206V15.3574C85.0954 15.0216 84.8656 14.7697 84.5593 14.7697H14.0973C13.7909 14.7697 13.5611 15.0216 13.5611 15.3574V93.4399C13.5611 93.6918 13.7143 93.9437 13.8675 94.0276C13.9441 94.0276 14.0207 94.0276 14.0973 94.0276C14.2504 94.0276 85.172 94.0276 85.3252 94.0276C85.4017 94.0276 85.4783 94.0276 85.5549 94.0276C85.7847 93.9437 85.8613 93.6918 85.8613 93.4399V53.0553C85.8613 52.7195 85.6315 52.4676 85.3252 52.4676H83.7168C83.4104 52.4676 83.1806 52.7195 83.1806 53.0553V91.257H16.3184V17.7083H84.6358C84.8656 17.7083 85.0954 17.4564 85.0954 17.1206Z" fill="white"/>
<path d="M28.8029 31.478H71.9993C72.3057 31.478 72.5355 31.2262 72.5355 30.8904V29.1272C72.5355 28.7914 72.3057 28.5394 71.9993 28.5394H26.6584C26.352 28.5394 26.1223 28.7914 26.1223 29.1272V79.7548C26.1223 80.0067 26.2754 80.2587 26.4286 80.3426C26.5052 80.3426 26.5818 80.3426 26.6584 80.3426C26.8116 80.3426 72.6887 80.3426 72.8418 80.3426C72.9184 80.3426 72.995 80.3426 73.0716 80.3426C73.3014 80.2587 73.378 80.0067 73.378 79.7548V52.9718C73.378 52.6359 73.1482 52.3841 72.8418 52.3841H71.2335C70.9271 52.3841 70.6973 52.6359 70.6973 52.9718V77.572H28.8029V31.478Z" fill="white"/>
<path d="M97.8856 52.3833H96.2773C95.9709 52.3833 95.7411 52.6352 95.7411 52.9711V105.026H3.68063V3.93859H97.0432C97.3495 3.93859 97.5793 3.6867 97.5793 3.35086V1.58773C97.5793 1.25189 97.3495 1 97.0432 1H1.53612C1.22977 1 1 1.25189 1 1.58773V107.209C1 107.461 1.15317 107.713 1.30635 107.797C1.38294 107.797 1.45953 107.797 1.53612 107.797C1.6893 107.797 97.7325 107.797 97.8856 107.797C97.9622 107.797 98.0388 107.797 98.1154 107.797C98.3452 107.713 98.4218 107.461 98.4218 107.209V52.9711C98.4218 52.6352 98.192 52.3833 97.8856 52.3833Z" fill="white"/>
<path d="M85.0954 17.1206V15.3574C85.0954 15.0216 84.8656 14.7697 84.5593 14.7697H14.0973C13.7909 14.7697 13.5611 15.0216 13.5611 15.3574V93.4399C13.5611 93.6918 13.7143 93.9437 13.8675 94.0276C13.9441 94.0276 14.0207 94.0276 14.0973 94.0276C14.2504 94.0276 85.172 94.0276 85.3252 94.0276C85.4017 94.0276 85.4783 94.0276 85.5549 94.0276C85.7847 93.9437 85.8613 93.6918 85.8613 93.4399V53.0553C85.8613 52.7195 85.6315 52.4676 85.3252 52.4676H83.7168C83.4104 52.4676 83.1806 52.7195 83.1806 53.0553V91.257H16.3184V17.7083H84.6358C84.8656 17.7083 85.0954 17.4564 85.0954 17.1206Z" stroke="white" stroke-width="1.43608"/>
<path d="M28.8029 31.478H71.9993C72.3057 31.478 72.5355 31.2262 72.5355 30.8904V29.1272C72.5355 28.7914 72.3057 28.5394 71.9993 28.5394H26.6584C26.352 28.5394 26.1223 28.7914 26.1223 29.1272V79.7548C26.1223 80.0067 26.2754 80.2587 26.4286 80.3426C26.5052 80.3426 26.5818 80.3426 26.6584 80.3426C26.8116 80.3426 72.6887 80.3426 72.8418 80.3426C72.9184 80.3426 72.995 80.3426 73.0716 80.3426C73.3014 80.2587 73.378 80.0067 73.378 79.7548V52.9718C73.378 52.6359 73.1482 52.3841 72.8418 52.3841H71.2335C70.9271 52.3841 70.6973 52.6359 70.6973 52.9718V77.572H28.8029V31.478Z" stroke="white" stroke-width="1.43608"/>
<path d="M97.8856 52.3833H96.2773C95.9709 52.3833 95.7411 52.6352 95.7411 52.9711V105.026H3.68063V3.93859H97.0432C97.3495 3.93859 97.5793 3.6867 97.5793 3.35086V1.58773C97.5793 1.25189 97.3495 1 97.0432 1H1.53612C1.22977 1 1 1.25189 1 1.58773V107.209C1 107.461 1.15317 107.713 1.30635 107.797C1.38294 107.797 1.45953 107.797 1.53612 107.797C1.6893 107.797 97.7325 107.797 97.8856 107.797C97.9622 107.797 98.0388 107.797 98.1154 107.797C98.3452 107.713 98.4218 107.461 98.4218 107.209V52.9711C98.4218 52.6352 98.192 52.3833 97.8856 52.3833Z" stroke="white" stroke-width="1.43608"/>
</svg>
