<svg width="123" height="30" viewBox="0 0 123 30" fill="none" xmlns="http://www.w3.org/2000/svg">
<mask id="mask0_4246_5058" style="mask-type:luminance" maskUnits="userSpaceOnUse" x="0" y="0" width="123" height="30">
<path d="M122.018 0H0.704346V29.8146H122.018V0Z" fill="white"/>
</mask>
<g mask="url(#mask0_4246_5058)">
<path d="M63.7154 22.0485L56.2962 4.66211H61.2573L67.8521 20.2949L63.7154 22.0485Z" fill="#006AFF"/>
<path d="M90.2605 22.3941H85.764V12.4568C85.764 11.4676 85.3594 10.5083 84.6549 9.80387C83.9505 9.09942 82.9912 8.70972 82.002 8.69474C81.0127 8.69474 80.0535 9.09942 79.349 9.80387C78.6446 10.5083 78.2549 11.4676 78.2399 12.4568V22.3191H73.7434V12.4568C73.7434 10.2685 74.6127 8.17014 76.1565 6.62635C77.7303 5.06756 79.8287 4.19824 82.017 4.19824C84.2053 4.19824 86.3036 5.06756 87.8474 6.61136C89.3912 8.15516 90.2605 10.2535 90.2605 12.4418V22.3941Z" fill="#006AFF"/>
<path d="M58.9036 29.6776V25.1811C60.4324 25.1811 61.6464 24.6415 62.6357 23.5324C63.1153 22.9778 63.505 22.3333 63.7598 21.6439L63.7898 21.5689L69.7251 4.66211H74.4914L68.0464 23.0378C67.6268 24.2368 66.9823 25.346 66.1729 26.3202C64.3144 28.5235 61.7963 29.6776 58.9036 29.6776Z" fill="#006AFF"/>
<path fill-rule="evenodd" clip-rule="evenodd" d="M98.3072 17.5978C99.0567 18.0474 99.911 18.2873 100.78 18.2873C101.515 18.2873 102.234 18.1224 102.893 17.8076C103.553 17.4779 104.123 17.0132 104.572 16.4437L108.109 19.2165C107.24 20.3407 106.131 21.24 104.857 21.8545C103.583 22.469 102.189 22.7838 100.78 22.7838C98.3222 22.7838 95.9541 21.7945 94.2154 20.0559C92.4768 18.3172 91.4876 15.9491 91.4876 13.491C91.4876 11.0329 92.4768 8.66476 94.2154 6.92612C95.9541 5.18747 98.3222 4.19824 100.78 4.19824C102.848 4.19824 104.872 4.90269 106.506 6.1767C108.139 7.45071 109.293 9.23432 109.803 11.2427C109.982 11.977 110.072 12.7263 110.057 13.4905C110.057 14.2549 109.967 15.0043 109.787 15.7387H96.5383C96.5382 15.7386 96.5384 15.7389 96.5383 15.7387C96.943 16.5031 97.5578 17.1481 98.3072 17.5978ZM95.9836 13.5233C95.9889 14.2857 96.1803 15.0469 96.5297 15.7227C96.1659 15.0468 95.9746 14.2856 95.9836 13.5233ZM96.5389 11.2423C96.9436 10.4781 97.558 9.83375 98.3072 9.3842C99.0567 8.93455 99.911 8.69474 100.78 8.69474C101.649 8.69474 102.504 8.93455 103.253 9.3842C104.002 9.83375 104.602 10.4781 105.022 11.2423H96.5389Z" fill="#006AFF"/>
<path d="M109.805 11.2432H96.5402C96.1655 11.9326 95.9856 12.712 95.9856 13.4914C95.9856 14.2708 96.1805 15.0502 96.5402 15.7397H109.79C109.97 15.0052 110.059 14.2558 110.059 13.4914C110.074 12.727 109.984 11.9776 109.805 11.2432Z" fill="#006AFF"/>
<path d="M121.749 4.66211H110.163V9.1586H121.749V4.66211Z" fill="#006AFF"/>
<path d="M121.749 22.7982H119.261C117.657 22.7982 116.128 22.1687 115.004 21.0296C113.88 19.9055 113.235 18.3766 113.235 16.7729V1.36491L117.732 0.000976562V16.7729C117.732 17.1776 117.897 17.5673 118.182 17.8521C118.466 18.1368 118.856 18.3017 119.261 18.3017H121.749V22.7982Z" fill="#006AFF"/>
<path d="M48.8175 22.8282C43.6465 22.8282 39.4348 18.6165 39.4348 13.4455C39.4348 8.27455 43.6465 4.04785 48.8175 4.04785C52.1149 4.04785 55.1126 5.72654 56.8363 8.54434L52.9543 10.9125C52.07 9.45863 50.5112 8.58931 48.8175 8.58931C46.1496 8.58931 43.9763 10.7626 43.9763 13.4305C43.9763 16.0985 46.1496 18.2718 48.8175 18.2718C50.5562 18.2718 52.1749 17.3275 53.0292 15.8287L56.9711 18.0769C55.3074 20.9996 52.1899 22.8282 48.8175 22.8282Z" fill="#006AFF"/>
<path d="M0.434814 14.8144L10.5638 4.32527C16.1385 -1.44046 25.2488 -1.44046 30.8235 4.32527C32.6583 6.26999 33.9511 8.56324 34.5632 10.9933C34.1552 10.2295 33.6801 9.46557 33.068 8.84014C29.8733 5.50611 24.7052 5.50611 21.4421 8.84014L15.6634 14.8144L21.4421 20.7886C24.6367 24.1226 29.8048 24.1226 33.068 20.7886C33.6801 20.1631 34.2237 19.3992 34.5632 18.6354C33.9511 21.0671 32.7284 23.4287 30.8235 25.3034C25.2488 31.1376 16.1385 31.1376 10.5638 25.3034L0.434814 14.8144Z" fill="#006AFF"/>
<path d="M34.5649 14.8141C34.5649 11.9655 32.3889 9.67384 29.6024 9.67384C26.8828 9.67384 24.6399 11.9655 24.6399 14.8141C24.6399 17.6628 26.8159 19.9544 29.6024 19.9544C32.3219 19.8844 34.5649 17.5928 34.5649 14.8141Z" fill="#006AFF"/>
</g>
</svg>
