<?xml version="1.0" encoding="UTF-8"?>
<svg xmlns="http://www.w3.org/2000/svg" version="1.1" xmlns:xlink="http://www.w3.org/1999/xlink" viewBox="0 0 248 54">
  <defs>
    <style>
      .cls-1 {
        fill: url(#linear-gradient-2);
      }

      .cls-2 {
        fill: #fe9d2b;
      }

      .cls-3 {
        fill: none;
      }

      .cls-4 {
        clip-path: url(#clippath-1);
      }

      .cls-5 {
        fill: #061526;
      }

      .cls-6 {
        fill: #b70821;
      }

      .cls-7 {
        clip-path: url(#clippath-2);
      }

      .cls-8 {
        fill: url(#linear-gradient);
      }

      .cls-9 {
        clip-path: url(#clippath);
      }

      .cls-10 {
        opacity: .5;
      }
    </style>
    <clipPath id="clippath">
      <path class="cls-3" d="M10.5,41.5c-.8-.4-1.5-.9-2.1-1.5-.6-.7-1.1-1.5-1.4-2.4-.4-1-.5-2-.5-3.1,0-1,.1-2,.5-3,.3-.9.7-1.7,1.3-2.4.5-.7,1.2-1.2,1.9-1.6.8-.4,1.6-.6,2.5-.6h10.6v15.1h-10.2c-.8,0-1.7-.2-2.4-.5M7.2,22.3c-1.5.7-2.8,1.7-3.9,3-1.1,1.3-1.9,2.7-2.5,4.2-.6,1.6-.9,3.3-.9,4.9,0,1.7.3,3.3.9,4.8.6,1.6,1.5,3,2.6,4.2,1.1,1.2,2.5,2.3,4,3,1.6.8,3.3,1.2,5.1,1.1h17v-20.8h-6.4v-5.7h-11c-1.7,0-3.4.3-5,1.1h0Z"/>
    </clipPath>
    <linearGradient id="linear-gradient" x1="-167" y1="432.1" x2="-166.3" y2="432.9" gradientTransform="translate(4945.9 11472.6) scale(29.6 -26.4)" gradientUnits="userSpaceOnUse">
      <stop offset="0" stop-color="#cc004a"/>
      <stop offset="1" stop-color="#76187e"/>
    </linearGradient>
    <clipPath id="clippath-1">
      <path class="cls-3" d="M23.2.5v20.8h6.4s0-15.1,0-15.1h10.2c.8,0,1.7.2,2.4.5.8.4,1.5.9,2.1,1.5.6.7,1.1,1.5,1.4,2.4.4,1,.5,2,.5,3.1,0,1-.1,2-.5,3-.3.9-.7,1.7-1.3,2.4-.5.7-1.2,1.2-1.9,1.6-.8.4-1.6.6-2.5.6h-10.6s0,5.6,0,5.6h11c1.7,0,3.4-.3,5-1.1,1.5-.7,2.8-1.7,3.9-3,1.1-1.2,1.9-2.7,2.5-4.2.6-1.6.9-3.3.9-4.9,0-1.7-.3-3.3-.9-4.8-.6-1.6-1.5-3-2.6-4.2-1.1-1.2-2.5-2.3-4-3-1.6-.8-3.3-1.2-5.1-1.1h-17Z"/>
    </clipPath>
    <linearGradient id="linear-gradient-2" x1="-167.1" y1="432.1" x2="-166.2" y2="432.9" gradientTransform="translate(4969.1 11451.8) scale(29.6 -26.4)" gradientUnits="userSpaceOnUse">
      <stop offset="0" stop-color="#fe9d2b"/>
      <stop offset="1" stop-color="#e82727"/>
    </linearGradient>
    <clipPath id="clippath-2">
      <rect class="cls-3" x="23.2" y="21.2" width="6.4" height="5.7"/>
    </clipPath>
  </defs>
  <!-- Generator: Adobe Illustrator 28.7.1, SVG Export Plug-In . SVG Version: 1.2.0 Build 142)  -->
  <g>
    <g id="Layer_1">
      <g id="Group_1738">
        <g id="Group_1737">
          <g id="Group_75">
            <g id="Group_13">
              <g id="Group_12">
                <g id="Group_2">
                  <g id="Group_1">
                    <path id="Path_1" class="cls-5" d="M80.5,43.9l2.8-.8c.3,1.5,1.6,2.5,3.1,2.5,1.3,0,2.5-.7,2.5-2.1s-.7-1.7-2.3-2.3l-1.8-.7c-2.7-1-3.8-2.7-3.8-4.6,0-2.8,2.4-4.5,5.4-4.5,2.5-.2,4.8,1.5,5.4,3.9l-2.7.7c-.3-1.1-1.3-1.9-2.5-1.9-1.3,0-2.1.7-2.1,1.8s.5,1.6,2,2.1l1.6.6c2.3.8,4.3,2,4.3,4.8s-2.8,4.9-6,4.9-5.4-1.6-5.9-4.5"/>
                    <path id="Path_2" class="cls-5" d="M99.7,34.5v9c0,.9.6,1.6,1.4,1.7.1,0,.2,0,.4,0,.5,0,1-.1,1.5-.3v2.7c-.8.5-1.6.7-2.5.7-2.5,0-4.2-1.2-4.2-4.2v-9.6h-2.3v-2.8h2.3v-4.2h3.5v4.2h3.3v2.8h-3.3Z"/>
                    <path id="Path_3" class="cls-5" d="M143.3,39.9c0-4.8,3.7-8.7,8.5-8.7,4.8,0,8.7,3.7,8.7,8.5s-3.7,8.7-8.5,8.7c0,0,0,0-.1,0-4.6.2-8.4-3.4-8.6-8,0-.2,0-.3,0-.5M156.4,39.9c-.1-2.5-2.2-4.3-4.7-4.2s-4.3,2.2-4.2,4.7c.1,2.4,2.1,4.2,4.5,4.2,2.4,0,4.4-2,4.4-4.4,0,0,0-.2,0-.3"/>
                    <path id="Path_4" class="cls-5" d="M171.7,44.3v3.2c-.8.6-1.9.8-2.9.8-2.8,0-4.8-1.4-4.8-4.7v-8.5h-2.3v-3.4h2.3v-4.2h4.2v4.2h3.4v3.4h-3.4v7.8c0,.8.5,1.7,1.9,1.7.5,0,1,0,1.5-.3"/>
                    <path id="Path_5" class="cls-5" d="M173.3,39.9c0-4.8,3.7-8.7,8.5-8.7,4.8,0,8.7,3.7,8.7,8.5s-3.7,8.7-8.5,8.7c0,0,0,0-.1,0-4.6.2-8.4-3.4-8.6-8,0-.2,0-.3,0-.5M186.4,39.9c-.1-2.5-2.2-4.3-4.7-4.2-2.5.1-4.3,2.2-4.2,4.7.1,2.4,2.1,4.2,4.5,4.2,2.4,0,4.4-1.9,4.4-4.4,0,0,0-.2,0-.3"/>
                    <path id="Path_6" class="cls-5" d="M218.2,39.9c0-5.5,4.3-8.5,8.6-8.5,2.9,0,5.6,1.5,7,4l-3.1,2c-.8-1.4-2.3-2.2-3.9-2.2-2.6.1-4.6,2.3-4.5,4.9,0,2.4,2.1,4.4,4.5,4.5,1.6,0,3.1-.8,3.9-2.2l3.1,2c-1.4,2.5-4.1,4.1-7,4-4.3,0-8.6-3-8.6-8.5"/>
                    <path id="Path_7" class="cls-5" d="M235.4,43.8l3.4-.9c.3,1.3,1.4,2.2,2.7,2.2,1.1,0,2.1-.5,2.1-1.7s-.5-1.4-1.8-1.8l-2-.8c-2.7-1-3.8-2.7-3.8-4.7,0-2.9,2.6-4.7,5.7-4.7s5.1,1.7,5.7,4.2l-3.3.8c-.2-1-1.1-1.7-2.2-1.7-1.1,0-1.8.6-1.8,1.4s.4,1.3,1.7,1.7l1.8.7c2,.7,4.2,1.9,4.2,4.8s-2.8,5-6.2,5-5.6-1.6-6.1-4.6"/>
                    <rect id="Rectangle_1" class="cls-5" x="106.9" y="39.3" width="4.1" height="14.7"/>
                    <path id="Path_8" class="cls-5" d="M106.9,39.9c0-4.8,3.7-8.7,8.5-8.7,4.8,0,8.7,3.7,8.7,8.5s-3.7,8.7-8.5,8.7c0,0,0,0-.1,0-4.6.2-8.4-3.4-8.6-8,0-.2,0-.3,0-.5M119.9,39.9c-.1-2.5-2.2-4.3-4.7-4.2s-4.3,2.2-4.2,4.7c.1,2.4,2.1,4.2,4.5,4.2,2.4,0,4.4-2,4.4-4.4,0,0,0-.2,0-.3"/>
                    <path id="Path_9" class="cls-5" d="M53.2,31.4c-4.7,0-8.5,3.8-8.5,8.5s3.8,8.5,8.5,8.5,8.5-3.8,8.5-8.5-3.8-8.5-8.5-8.5h0M53.2,45.2c-2.9,0-5.3-2.4-5.3-5.3s2.4-5.3,5.3-5.3,5.3,2.4,5.3,5.3h0c0,2.9-2.4,5.3-5.3,5.3"/>
                    <rect id="Rectangle_2" class="cls-5" x="58.5" y="25.7" width="3.1" height="14.5"/>
                    <path id="Path_10" class="cls-5" d="M74.9,31.7v9.5c0,1.8-1.5,3.3-3.3,3.3h-1.2c-1.8,0-3.3-1.5-3.3-3.3v-9.5h-3.6v9.5c0,3.8,3.1,6.9,6.9,6.9h1.2c3.8,0,6.9-3.1,6.9-6.9v-9.5h-3.6Z"/>
                    <path id="Path_11" class="cls-5" d="M201.3,31.7h-1.2c-3.8,0-6.9,3.1-6.9,6.9v9.5h4.1v-9.5c0-1.6,1.3-2.8,2.8-2.8h1.2c1.6,0,2.8,1.3,2.8,2.8v9.5h4.1v-9.5c0-3.8-3.1-6.9-6.9-6.9"/>
                    <path id="Path_12" class="cls-5" d="M134,31.7h-1.2c-3.8,0-6.9,3.1-6.9,6.9v9.5h4.1v-9.5c0-1.6,1.3-2.8,2.8-2.8h1.2c1.6,0,2.8,1.3,2.8,2.8v9.5h4.1v-9.5c0-3.8-3.1-6.9-6.9-6.9"/>
                    <rect id="Rectangle_3" class="cls-5" x="126" y="27.6" width="4.1" height="14.4"/>
                    <rect id="Rectangle_4" class="cls-5" x="211.6" y="31.7" width="4.2" height="16.4"/>
                    <path id="Path_13" class="cls-5" d="M216.3,27.5c0,1.4-1.2,2.6-2.6,2.6s-2.6-1.2-2.6-2.6,1.2-2.6,2.6-2.6h0c1.4,0,2.6,1.2,2.6,2.6"/>
                    <path id="Path_14" class="cls-6" d="M23.2,21.2v5.7h6.4s0-5.6,0-5.6h-6.4Z"/>
                  </g>
                </g>
                <g id="Group_4">
                  <g class="cls-9">
                    <g id="Group_3">
                      <rect id="Rectangle_6" class="cls-8" y="21.2" width="29.6" height="26.4"/>
                    </g>
                  </g>
                </g>
                <g id="Group_6">
                  <g class="cls-4">
                    <g id="Group_5">
                      <rect id="Rectangle_7" class="cls-1" x="23.2" y=".5" width="29.6" height="26.4"/>
                    </g>
                  </g>
                </g>
                <g id="Group_11">
                  <g id="Group_10">
                    <g id="Group_9" class="cls-10">
                      <g id="Group_8">
                        <g class="cls-7">
                          <g id="Group_7">
                            <path id="Path_17" class="cls-2" d="M23.2,21.2v5.7h6.4s0-5.6,0-5.6h-6.4Z"/>
                          </g>
                        </g>
                      </g>
                    </g>
                  </g>
                </g>
              </g>
            </g>
          </g>
        </g>
      </g>
    </g>
  </g>
</svg>