<svg width="168" height="37" viewBox="0 0 168 37" fill="none" xmlns="http://www.w3.org/2000/svg">
<g clip-path="url(#clip0_4246_5118)">
<path fill-rule="evenodd" clip-rule="evenodd" d="M26.4293 29.8321H16.5383C16.3244 29.8217 16.1106 29.8534 15.9091 29.9256C15.7075 29.9977 15.5222 30.1088 15.3637 30.2525C15.2052 30.3963 15.0767 30.5697 14.9855 30.7631C14.8944 30.9564 14.8423 31.1658 14.8323 31.3792C14.8125 31.8099 14.9645 32.2309 15.2551 32.55C15.5457 32.869 15.9512 33.0602 16.3828 33.0815H16.5383C17.2135 33.0635 17.8838 33.2006 18.4973 33.4823C19.1109 33.764 19.6513 34.1828 20.0767 34.7062C20.6163 35.3673 20.9717 36.1585 21.1071 37.0002H21.8653C21.9984 36.1514 22.3519 35.3521 22.8909 34.682C23.318 34.1605 23.8587 33.7431 24.4719 33.4616C25.085 33.18 25.7545 33.0418 26.4293 33.0573C26.6432 33.0691 26.8573 33.0386 27.0593 32.9677C27.2614 32.8967 27.4475 32.7867 27.6069 32.6439C27.7663 32.5011 27.8958 32.3283 27.9882 32.1354C28.0805 31.9425 28.1338 31.7333 28.145 31.5199C28.1568 31.3071 28.1264 31.0941 28.0555 30.893C27.9847 30.692 27.8748 30.5068 27.7321 30.3482C27.5894 30.1897 27.4168 30.0607 27.2241 29.9688C27.0314 29.8769 26.8224 29.8239 26.6091 29.8127C26.5487 29.8143 26.4886 29.8208 26.4293 29.8321ZM26.9153 24.6282H15.5225C15.301 24.623 15.0807 24.6615 14.8741 24.7413C14.6675 24.8212 14.4787 24.9409 14.3184 25.0935C14.1582 25.2462 14.0297 25.4289 13.9402 25.6312C13.8508 25.8334 13.8021 26.0513 13.7971 26.2723C13.7892 26.7179 13.9578 27.1487 14.2663 27.471C14.5748 27.7934 14.9982 27.9813 15.4447 27.994H26.925C27.1465 28.0005 27.3671 27.9633 27.5742 27.8847C27.7813 27.806 27.9709 27.6874 28.132 27.5356C28.2932 27.3838 28.4228 27.2018 28.5134 27C28.604 26.7983 28.6539 26.5806 28.6602 26.3596C28.6673 26.1384 28.6305 25.918 28.5519 25.7111C28.4733 25.5041 28.3545 25.3147 28.2023 25.1538C28.05 24.9929 27.8674 24.8636 27.6648 24.7734C27.4623 24.6832 27.2439 24.6338 27.0222 24.6282H26.9153ZM24.3879 23.0617C24.8532 23.0617 25.2995 22.8772 25.6286 22.5489C25.9576 22.2206 26.1425 21.7752 26.1425 21.3109C26.1431 21.0808 26.0982 20.8528 26.0102 20.6401C25.9223 20.4274 25.7931 20.2341 25.63 20.0714C25.467 19.9087 25.2733 19.7798 25.0601 19.692C24.8469 19.6043 24.6185 19.5594 24.3879 19.5601H18.4874C18.022 19.5601 17.5757 19.7445 17.2467 20.0729C16.9176 20.4012 16.7328 20.8465 16.7328 21.3109C16.7328 21.7752 16.9176 22.2206 17.2467 22.5489C17.5757 22.8772 18.022 23.0617 18.4874 23.0617H24.3879ZM38.3956 6.87278C37.1838 6.14103 35.7968 5.74856 34.3805 5.73661C32.9641 5.72466 31.5707 6.09368 30.3467 6.80488L27.9943 8.158C27.6415 6.70799 26.8199 5.41429 25.6564 4.47693C25.7099 4.38963 25.7634 4.3072 25.8217 4.22475C25.9925 3.97635 26.1951 3.75134 26.4244 3.55547C26.4757 3.4991 26.5346 3.45013 26.5994 3.40998C26.6459 3.3816 26.6898 3.34913 26.7306 3.31297C26.8234 3.24771 26.9209 3.18937 27.0222 3.13838C27.1768 3.05142 27.3396 2.97994 27.5083 2.92499L27.7999 2.8086C27.8839 2.77075 27.9651 2.72698 28.0429 2.67764C28.3663 2.46654 28.5925 2.136 28.6717 1.75861C28.751 1.38122 28.6769 0.987845 28.4657 0.664928C28.3662 0.506225 28.2362 0.368792 28.0831 0.260574C27.93 0.152355 27.7569 0.0754916 27.5738 0.034449C27.3908 -0.00659348 27.2014 -0.01101 27.0166 0.0214541C26.8318 0.0539181 26.6553 0.122638 26.4973 0.223602L26.2105 0.412754C25.954 0.576108 25.7132 0.762799 25.4912 0.970472C25.3277 1.10034 25.1764 1.24482 25.0392 1.40212L24.9323 1.51851C24.8181 1.63526 24.7125 1.76007 24.6163 1.89196C24.3108 2.27922 24.0575 2.70478 23.863 3.15777C23.8289 3.24022 23.7949 3.32267 23.7657 3.40512C22.2664 2.85227 20.6185 2.85227 19.1192 3.40512C19.0948 3.32442 19.0623 3.24643 19.022 3.17234C18.8434 2.7281 18.6046 2.31033 18.3124 1.93074C18.2144 1.78423 18.102 1.64778 17.977 1.52337L17.8749 1.41183C17.7392 1.25928 17.5895 1.11962 17.4278 0.994716C17.2021 0.787251 16.9581 0.600596 16.6987 0.436997L16.4265 0.257554C16.3476 0.204434 16.2628 0.16049 16.1738 0.126598C15.8216 -0.0162817 15.4275 -0.0162817 15.0753 0.126598C14.7206 0.278236 14.4406 0.564009 14.2967 0.921275C14.1527 1.27854 14.1566 1.67816 14.3074 2.0326C14.3824 2.20998 14.4918 2.37076 14.6295 2.50563C14.7671 2.64049 14.9303 2.74677 15.1094 2.81828L15.435 2.94923C15.6039 3.00564 15.7667 3.07876 15.921 3.16748C16.0113 3.20876 16.0962 3.26088 16.1738 3.32268L16.3002 3.41483C16.3739 3.45849 16.4409 3.51235 16.4994 3.57486C16.7281 3.76718 16.9263 3.99282 17.0876 4.24414C17.141 4.32174 17.1945 4.40419 17.2431 4.48664C16.1172 5.3919 15.3073 6.62953 14.9295 8.0222L12.8396 6.81459C11.6174 6.10185 10.2252 5.73108 8.80956 5.74132C7.39397 5.75156 6.00734 6.14244 4.79561 6.87278C2.91708 7.99788 1.56326 9.82138 1.03188 11.9423C0.500503 14.0632 0.835067 16.3079 1.96199 18.1827C2.67024 19.3618 3.6627 20.3454 4.84907 21.0441C6.07942 21.7557 7.47726 22.1279 8.8993 22.1228C10.3213 22.1177 11.7165 21.7354 12.9416 21.015L21.5932 15.879L30.2447 21.015C31.466 21.7506 32.864 22.1425 34.2905 22.1493C35.7169 22.1562 37.1186 21.7776 38.3469 21.0538C40.2341 19.9424 41.6015 18.1286 42.1484 16.0112C42.6953 13.8938 42.3769 11.6464 41.2632 9.76331C40.5629 8.57951 39.5772 7.5892 38.3956 6.88248V6.87278ZM39.1732 14.1476C39.1812 14.9703 38.9704 15.7804 38.5623 16.4952C38.1541 17.21 37.5632 17.804 36.8499 18.2166C36.1504 18.6331 35.351 18.853 34.5364 18.853C33.7218 18.853 32.9224 18.6331 32.2229 18.2166L25.2822 14.0797L32.286 10.0543C32.9846 9.64651 33.7804 9.4344 34.5897 9.44037C35.3989 9.44635 36.1916 9.67019 36.884 10.0883C37.5891 10.5024 38.1721 11.095 38.5741 11.8061C38.9761 12.5171 39.1827 13.3215 39.1732 14.1379V14.1476ZM11.3523 10.0543L18.3561 14.0797L11.4155 18.2021C10.7168 18.6187 9.9182 18.8386 9.10435 18.8386C8.2905 18.8386 7.49185 18.6187 6.79323 18.2021C5.71615 17.5598 4.93834 16.5175 4.63037 15.3037C4.3224 14.0899 4.50942 12.8039 5.15041 11.7275C5.55072 11.0565 6.10977 10.4937 6.77863 10.0883C7.47046 9.67111 8.2622 9.4478 9.0705 9.44182C9.8788 9.43585 10.6738 9.64743 11.3717 10.0543H11.3523Z" fill="#00BF56"/>
<path fill-rule="evenodd" clip-rule="evenodd" d="M125.348 7.51587V24.8102L127.624 24.8054L128.227 23.6476C129.36 24.6363 130.818 25.1766 132.324 25.1657C136.194 25.1657 139.021 22.2833 139.021 18.4401V18.099C139.003 17.2425 138.816 16.3977 138.47 15.6132C138.124 14.8286 137.625 14.1196 137.004 13.5266C136.382 12.9337 135.648 12.4685 134.845 12.1575C134.043 11.8466 133.186 11.696 132.324 11.7145C131.069 11.7048 129.841 12.0843 128.812 12.8002V7.51587H125.348ZM129.155 20.3857C128.77 19.8176 128.562 19.1492 128.556 18.4641L128.561 18.4833C128.542 17.7877 128.735 17.1027 129.117 16.5192C129.498 15.9358 130.049 15.4815 130.696 15.2166C131.126 15.0453 131.587 14.9651 132.049 14.9812C132.737 14.9816 133.409 15.1838 133.982 15.5625C134.552 15.9455 134.996 16.4865 135.26 17.1185C135.524 17.7505 135.595 18.4456 135.465 19.1175C135.422 19.3435 135.353 19.5642 135.262 19.7756C134.91 20.6234 134.234 21.2976 133.382 21.6498C132.531 22.002 131.573 22.0035 130.72 21.654C130.083 21.3954 129.538 20.9538 129.155 20.3857ZM79.7343 29.4123V12.118L77.4346 12.0988L76.8451 13.2565C75.7154 12.2639 74.2557 11.723 72.7481 11.7385H72.3374C70.6076 11.8023 68.9742 12.5467 67.7963 13.8079C66.6185 15.0692 65.9927 16.744 66.0567 18.464V18.8099C66.0972 20.5394 66.826 22.1824 68.0831 23.3783C69.3403 24.5743 71.0231 25.2257 72.7626 25.1896C74.0162 25.1987 75.2429 24.8284 76.2799 24.1279V29.4123H79.7343ZM76.2504 17.1426C76.4287 17.5608 76.5225 18.0098 76.5263 18.464C76.5517 19.1578 76.3605 19.8424 75.979 20.4239C75.5976 21.0053 75.0444 21.4551 74.3956 21.7115C73.5366 22.0418 72.5826 22.0293 71.7326 21.6766C70.8827 21.3239 70.2028 20.6582 69.8348 19.8188C69.6631 19.4074 69.5729 18.967 69.5691 18.5217C69.5646 18.0673 69.6504 17.6165 69.8214 17.1951C69.9925 16.7737 70.2455 16.39 70.566 16.066C70.8864 15.742 71.268 15.4841 71.6889 15.307C72.1098 15.1299 72.5617 15.0371 73.0187 15.034C73.4755 15.0302 73.9286 15.1159 74.3521 15.2862C74.7756 15.4566 75.1612 15.7082 75.4869 16.0267C75.8127 16.3452 76.0721 16.7244 76.2504 17.1426ZM81.5169 19.4586V12.1133H84.9714V19.0647C84.9714 20.871 85.9377 21.947 87.532 21.947C89.1264 21.947 90.0733 20.8373 90.0733 19.0647V12.1133H93.5277V19.4586C93.5277 22.8934 91.1459 25.1897 87.5223 25.1897C83.8988 25.1897 81.5169 22.8886 81.5169 19.4586ZM95.4912 12.1901H98.9553V25.18H95.4912V12.1901ZM109.619 22.1247V25.1896H107.159C104.333 25.1896 102.608 23.4746 102.608 20.6691V15.2358H100.304V14.496L105.357 9.14917H106.014V12.2189H109.541V15.2598H106.092V20.1935C106.071 20.4257 106.097 20.6597 106.167 20.882C106.238 21.1043 106.352 21.3106 106.502 21.4891C106.653 21.6676 106.838 21.8147 107.046 21.9222C107.254 22.0296 107.481 22.0951 107.715 22.1151C107.831 22.1247 107.947 22.1247 108.063 22.1151L109.619 22.1247ZM118.927 24.8679L124.483 12.1758L120.806 12.2191L117.598 20.1793L114.216 12.2191H110.452L115.888 24.0801L115.839 24.181C115.037 26.1074 114.593 26.5493 112.941 26.5493H111.728V29.4845H113.177C116.028 29.4845 117.39 28.3124 118.927 24.8679ZM153.202 18.4257C153.196 18.7597 153.174 19.0932 153.134 19.4249H143.443C143.742 21.1592 144.892 22.12 146.568 22.12C147.111 22.1325 147.648 22.0023 148.124 21.7425C148.6 21.4827 148.998 21.1025 149.279 20.6403H152.917C152.49 21.9748 151.643 23.1375 150.501 23.9567C149.358 24.7759 147.981 25.2082 146.573 25.1897C142.8 25.1897 139.959 22.3073 139.959 18.4641C139.959 14.621 142.785 11.7386 146.573 11.7386C150.501 11.7386 153.192 14.7459 153.192 18.4065L153.202 18.4257ZM143.558 17.095H149.752C149.582 16.3953 149.175 15.7749 148.6 15.3377C148.025 14.9004 147.316 14.6729 146.593 14.693C145.882 14.6677 145.185 14.8958 144.629 15.3363C144.073 15.7768 143.693 16.4006 143.558 17.095ZM167.221 19.4249C167.264 19.0935 167.285 18.7598 167.284 18.4257L167.279 18.4065C167.279 14.7459 164.593 11.7386 160.66 11.7386C156.873 11.7386 154.046 14.621 154.046 18.4641C154.046 22.3073 156.887 25.1897 160.66 25.1897C162.07 25.2107 163.449 24.7795 164.592 23.9601C165.736 23.1406 166.583 21.9765 167.009 20.6403H163.366C163.088 21.1035 162.691 21.4849 162.216 21.7453C161.738 22.0001 161.203 22.129 160.66 22.12C158.979 22.12 157.839 21.1592 157.53 19.4249H167.221ZM163.815 17.095H157.621H157.593C157.735 16.4 158.12 15.7774 158.68 15.3378C159.24 14.8981 159.938 14.6697 160.651 14.693C161.375 14.6717 162.085 14.8988 162.661 15.3361C163.238 15.7734 163.645 16.3945 163.815 17.095ZM64.8836 18.9062C64.8803 19.2402 64.8577 19.5739 64.816 19.9054H55.1532C55.4576 21.6396 56.6026 22.6004 58.2743 22.6004C58.818 22.6143 59.3557 22.4848 59.8327 22.2248C60.3096 21.9649 60.7088 21.584 60.9895 21.1208H64.6276C64.2009 22.4573 63.3525 23.6216 62.2082 24.441C61.0638 25.2604 59.6844 25.6915 58.2743 25.6701C54.501 25.6701 51.6602 22.7878 51.6602 18.9446C51.6602 15.1014 54.4865 12.219 58.2743 12.219C62.207 12.219 64.8933 15.2263 64.8933 18.8869L64.8836 18.9062ZM55.2402 17.5755H61.434C61.2636 16.8749 60.8562 16.2539 60.28 15.8166C59.7039 15.3792 58.994 15.1522 58.2695 15.1735C57.56 15.1513 56.8657 15.3807 56.3107 15.8207C55.7558 16.2608 55.3763 16.8828 55.2402 17.5755ZM95.4957 7.52547H98.955V10.3646H95.4957V7.52547Z" fill="#060656"/>
</g>
<defs>
<clipPath id="clip0_4246_5118">
<rect width="168" height="37" fill="white"/>
</clipPath>
</defs>
</svg>
