<?xml version="1.0" encoding="UTF-8"?>
<svg xmlns="http://www.w3.org/2000/svg" version="1.1" viewBox="0 0 120 41.9">
  <defs>
    <style>
      .cls-1, .cls-2 {
        fill: #fff;
      }

      .cls-2 {
        fill-rule: evenodd;
      }
    </style>
  </defs>
  <!-- Generator: Adobe Illustrator 28.7.1, SVG Export Plug-In . SVG Version: 1.2.0 Build 142)  -->
  <g>
    <g id="Layer_1">
      <g id="Layer_1-2" data-name="Layer_1">
        <g>
          <path class="cls-1" d="M30.2,31.5l1.5-4.3,2.9-7.9,3-8.2c-.6-1.1-1.5-2-2.7-2.3-1.8-.6-3.9-.2-5.2,1.1-.2-1.8-1.4-3.5-3.2-4.1-1.5-.6-3.2-.3-4.4.5C26.8.9,34.4-1.4,41.4.9l.6-.6c.2-.2.5,0,.5.2l.2.9c7,2.7,11.2,9.3,11.7,16.5-.5-1.2-1.5-2.3-2.9-2.9-1.8-.8-3.9-.2-5.2,1.1-.2-1.8-1.4-3.5-3.2-4.1-1.4-.5-2.7-.5-3.8.2l-3.2,8.8-1.4,3.7-1.5,4.1-4.4,12c-.2.3-.3.6-.6.9-.3.2-.6.3-.9.3s-.8-.2-.9-.3c-.3-.2-.5-.5-.6-.9l-7.3-19.5-.2-.3v-.3c0-.3.2-.6.3-.8.2-.2.5-.3.8-.3s.5,0,.6.2c.2.2.3.3.5.6l4.1,11.1,2.7,7.8,2.9-7.6h0v-.2Z"/>
          <path class="cls-2" d="M18.5,40.2l-7.4-19.7c-.3-.8-.8-1.2-1.7-1.2s-1.4.5-1.7,1.2L.1,40.4c-.2.5-.2.8,0,1.1.2.3.5.3.8.3s.5,0,.6-.2c.2-.2.3-.3.5-.6l2.1-5.3h10.5l2.1,5.3c.2.3.3.6.5.6.2.2.3.2.6.2s.6-.2.8-.5c.2-.3.2-.6,0-1.1h-.1ZM4.7,34l4.7-12.5h0l4.7,12.5H4.7Z"/>
          <path class="cls-2" d="M54.9,40.2l-7.4-19.7c-.3-.8-.9-1.2-1.8-1.2s-1.4.5-1.7,1.2l-7.4,19.8h0c-.2.5-.2.8,0,1.1s.5.3.8.3.5,0,.6-.2c.2-.2.3-.3.5-.6l2.1-5.3h10.5l2.1,5.3c.2.3.3.6.5.6.2.2.3.2.6.2s.6-.2.8-.5.2-.6,0-1.1h-.2ZM41.1,34l4.6-12.5,4.7,12.5h-9.3Z"/>
          <path class="cls-2" d="M74.3,30.9l.2,7.6-12.3-18.3c-.2-.2-.3-.5-.5-.6-.2-.2-.5-.3-.8-.3s-.6.2-.9.3c-.2.3-.3.6-.3,1.1v19.8c0,.3.2.6.3.8.2.2.5.3.6.3.3,0,.6-.2.8-.3s.3-.5.3-.8v-10.4l-.2-7.6,12.1,18.1c.2.3.3.5.6.6.2.2.5.3.9.3s.8-.2.9-.3c.2-.3.3-.6.3-1.1v-19.7c0-.3-.2-.6-.3-.8-.2-.2-.5-.3-.8-.3s-.6.2-.8.3c-.2.2-.3.5-.3.8v10.4h.2Z"/>
          <path class="cls-2" d="M117.9,30.9l.2,7.6-12.3-18.3c-.2-.2-.3-.5-.5-.6-.2-.2-.5-.3-.8-.3s-.6.2-.9.3c-.2.3-.3.6-.3,1.1v19.8c0,.3.2.6.3.8.2.2.5.3.6.3.3,0,.6-.2.8-.3.2-.2.3-.5.3-.8v-10.4l-.2-7.6,12.1,18.1c.2.3.3.5.6.6.2.2.5.3.9.3s.8-.2.9-.3c.2-.3.3-.6.3-1.1v-19.7c0-.3-.2-.6-.3-.8-.2-.2-.5-.3-.8-.3s-.6.2-.8.3c-.2.2-.3.5-.3.8v10.4h.2Z"/>
          <path class="cls-2" d="M98.4,40.2l-7.4-19.7c-.3-.8-.9-1.2-1.8-1.2s-1.4.5-1.7,1.2l-7.4,19.8h0c-.2.5-.2.8,0,1.1s.5.3.8.3.5,0,.6-.2c.2-.2.3-.3.5-.6l2.1-5.3h10.5l2.1,5.3c.2.3.3.6.5.6.2.2.3.2.6.2s.6-.2.8-.5c.2-.3.2-.6,0-1.1h-.2ZM84.6,34l4.6-12.5,4.7,12.5s-9.3,0-9.3,0Z"/>
        </g>
      </g>
    </g>
  </g>
</svg>