<svg xmlns="http://www.w3.org/2000/svg" xmlns:xlink="http://www.w3.org/1999/xlink" width="248" height="54" viewBox="0 0 248 54"><defs><clipPath id="clip-path"><rect id="Rectangle_10" data-name="Rectangle 10" width="248" height="54" transform="translate(0 -0.171)" fill="none"></rect></clipPath><clipPath id="clip-path-2"><rect id="Rectangle_5" data-name="Rectangle 5" width="248" height="54" transform="translate(0 -0.171)" fill="#fff"></rect></clipPath><clipPath id="clip-path-3"><path id="Path_15" data-name="Path 15" d="M10.539,71.174a6.558,6.558,0,0,1-2.085-1.543,7.246,7.246,0,0,1-1.428-2.371,8.735,8.735,0,0,1-.514-3.084,9.539,9.539,0,0,1,.457-3.028,8,8,0,0,1,1.256-2.4,5.706,5.706,0,0,1,1.914-1.6,5.365,5.365,0,0,1,2.485-.571l10.568.018V71.716H12.966a5.715,5.715,0,0,1-2.428-.543M7.226,52.038a12.092,12.092,0,0,0-3.856,2.97A13.852,13.852,0,0,0,.886,59.235,14.018,14.018,0,0,0,0,64.176,12.956,12.956,0,0,0,.943,69a14.153,14.153,0,0,0,2.6,4.227,12.953,12.953,0,0,0,3.97,3,11.264,11.264,0,0,0,5.055,1.142H29.589V56.609l-6.4-.011V50.944l-10.968-.02a11.126,11.126,0,0,0-5,1.114" transform="translate(0 -50.924)" fill="none"></path></clipPath><linearGradient id="linear-gradient" x1="0.262" y1="0.897" x2="0.932" y2="0.124" gradientUnits="objectBoundingBox"><stop offset="0" stop-color="#cc004a"></stop><stop offset="1" stop-color="#76187e"></stop></linearGradient><clipPath id="clip-path-4"><path id="Path_16" data-name="Path 16" d="M56.936,0V20.762l6.4.011V5.655H73.558a5.719,5.719,0,0,1,2.427.543A6.556,6.556,0,0,1,78.071,7.74,7.236,7.236,0,0,1,79.5,10.111a8.725,8.725,0,0,1,.514,3.084,9.534,9.534,0,0,1-.457,3.027,7.99,7.99,0,0,1-1.257,2.4,5.7,5.7,0,0,1-1.914,1.6,5.355,5.355,0,0,1-2.485.572l-10.567-.019v5.654l10.967.019a11.126,11.126,0,0,0,5-1.114,12.094,12.094,0,0,0,3.856-2.97,13.843,13.843,0,0,0,2.484-4.227,14,14,0,0,0,.886-4.941,12.963,12.963,0,0,0-.943-4.827,14.158,14.158,0,0,0-2.6-4.227,12.959,12.959,0,0,0-3.97-3A11.269,11.269,0,0,0,73.958,0Z" transform="translate(-56.936 0)" fill="none"></path></clipPath><linearGradient id="linear-gradient-2" x1="0.087" y1="0.909" x2="1" y2="0.147" gradientUnits="objectBoundingBox"><stop offset="0" stop-color="#fe9d2b"></stop><stop offset="1" stop-color="#e82727"></stop></linearGradient><clipPath id="clip-path-6"><rect id="Rectangle_8" data-name="Rectangle 8" width="6.397" height="5.666" fill="none"></rect></clipPath></defs><g id="Group_1738" data-name="Group 1738" transform="translate(-33 -23)"><g id="Group_1737" data-name="Group 1737"><g id="Group_75" data-name="Group 75" transform="translate(-615 -1161.482)"><g id="Group_13" data-name="Group 13" transform="translate(648 1184.653)"><g id="Group_12" data-name="Group 12" transform="translate(0 0)" clip-path="url(#clip-path)"><g id="Group_2" data-name="Group 2"><g id="Group_1" data-name="Group 1" clip-path="url(#clip-path-2)"><path id="Path_1" data-name="Path 1" d="M197.514,88.417l2.83-.786a3.071,3.071,0,0,0,3.082,2.485c1.29,0,2.548-.661,2.548-2.107,0-1.038-.692-1.667-2.265-2.3l-1.761-.661c-2.705-1.038-3.837-2.7-3.837-4.623,0-2.768,2.422-4.5,5.378-4.5a5.193,5.193,0,0,1,5.409,3.931l-2.736.723a2.534,2.534,0,0,0-2.516-1.887c-1.258,0-2.138.692-2.138,1.761,0,.849.534,1.573,2.012,2.107l1.6.629c2.264.849,4.309,2.013,4.309,4.812,0,3.271-2.768,4.906-5.976,4.906-3.145,0-5.44-1.6-5.943-4.5" transform="translate(-117.061 -44.691)" fill="#fff"></path><path id="Path_2" data-name="Path 2" d="M236.389,73.417V82.38a1.56,1.56,0,0,0,1.793,1.667,4.438,4.438,0,0,0,1.509-.283V86.5a4.233,4.233,0,0,1-2.547.66c-2.485,0-4.246-1.227-4.246-4.151V73.417h-2.264v-2.8H232.9V66.435h3.491v4.183h3.3v2.8Z" transform="translate(-136.69 -39.063)" fill="#fff"></path><path id="Path_3" data-name="Path 3" d="M351.919,84.423a8.618,8.618,0,1,1,8.617,8.492,8.314,8.314,0,0,1-8.617-8.492m13.052,0a4.456,4.456,0,1,0-4.434,4.686,4.416,4.416,0,0,0,4.434-4.686" transform="translate(-208.573 -44.691)" fill="#fff"></path><path id="Path_4" data-name="Path 4" d="M407.052,83.165V86.4a4.585,4.585,0,0,1-2.862.755c-2.767,0-4.78-1.352-4.78-4.717v-8.46h-2.327V70.617h2.327V66.434h4.246v4.183h3.365v3.365h-3.365V81.75c0,.849.472,1.667,1.856,1.667a5.346,5.346,0,0,0,1.541-.252" transform="translate(-235.341 -39.062)" fill="#fff"></path><path id="Path_5" data-name="Path 5" d="M425.493,84.423a8.618,8.618,0,1,1,8.617,8.492,8.314,8.314,0,0,1-8.617-8.492m13.052,0a4.456,4.456,0,1,0-4.435,4.686,4.416,4.416,0,0,0,4.435-4.686" transform="translate(-252.179 -44.691)" fill="#fff"></path><path id="Path_6" data-name="Path 6" d="M535.738,84.423c0-5.535,4.309-8.492,8.617-8.492a7.929,7.929,0,0,1,7.045,4.026l-3.082,1.981a4.683,4.683,0,0,0-3.932-2.2,4.69,4.69,0,0,0,0,9.373,4.683,4.683,0,0,0,3.932-2.2l3.082,1.982a7.992,7.992,0,0,1-7.045,4.026c-4.308,0-8.617-2.956-8.617-8.492" transform="translate(-317.518 -44.691)" fill="#fff"></path><path id="Path_7" data-name="Path 7" d="M577.813,88.322l3.365-.912a2.74,2.74,0,0,0,2.705,2.17c1.069,0,2.107-.535,2.107-1.7,0-.786-.5-1.352-1.792-1.824l-2.013-.755c-2.7-.975-3.837-2.705-3.837-4.686,0-2.925,2.579-4.686,5.662-4.686,2.956,0,5.126,1.667,5.66,4.183l-3.3.849a2.183,2.183,0,0,0-2.169-1.73c-1.1,0-1.762.629-1.762,1.415,0,.692.409,1.29,1.7,1.73l1.824.692c2.013.723,4.215,1.918,4.215,4.812,0,3.271-2.8,5.032-6.227,5.032-3.239,0-5.63-1.572-6.133-4.591" transform="translate(-342.455 -44.691)" fill="#fff"></path><rect id="Rectangle_1" data-name="Rectangle 1" width="4.074" height="14.727" transform="translate(106.854 39.157)" fill="#fff"></rect><path id="Path_8" data-name="Path 8" d="M262.33,84.423a8.618,8.618,0,1,1,8.617,8.492,8.314,8.314,0,0,1-8.617-8.492m13.052,0a4.456,4.456,0,1,0-4.434,4.686,4.416,4.416,0,0,0,4.434-4.686" transform="translate(-155.476 -44.691)" fill="#fff"></path><path id="Path_9" data-name="Path 9" d="M118.151,75.931a8.484,8.484,0,1,0,8.484,8.484,8.484,8.484,0,0,0-8.484-8.484m0,13.823a5.339,5.339,0,1,1,5.339-5.339,5.339,5.339,0,0,1-5.339,5.339" transform="translate(-64.997 -44.691)" fill="#fff"></path><rect id="Rectangle_2" data-name="Rectangle 2" width="3.145" height="14.476" transform="translate(58.493 25.579)" fill="#fff"></rect><path id="Path_10" data-name="Path 10" d="M167.385,76.7v9.455a3.317,3.317,0,0,1-3.314,3.314H162.9a3.317,3.317,0,0,1-3.314-3.314V76.7H156v9.455a6.919,6.919,0,0,0,6.9,6.9h1.172a6.919,6.919,0,0,0,6.9-6.9V76.7Z" transform="translate(-92.457 -45.149)" fill="#fff"></path><path id="Path_11" data-name="Path 11" d="M482.357,76.7h-1.172a6.919,6.919,0,0,0-6.9,6.9v9.455h4.075V83.6a2.828,2.828,0,0,1,2.825-2.824h1.172a2.827,2.827,0,0,1,2.824,2.824v9.455h4.074V83.6a6.919,6.919,0,0,0-6.9-6.9" transform="translate(-281.096 -45.149)" fill="#fff"></path><path id="Path_12" data-name="Path 12" d="M317.3,76.7h-1.172a6.919,6.919,0,0,0-6.9,6.9v9.455H313.3V83.6a2.828,2.828,0,0,1,2.825-2.824H317.3a2.827,2.827,0,0,1,2.824,2.824v9.455H324.2V83.6a6.919,6.919,0,0,0-6.9-6.9" transform="translate(-183.27 -45.149)" fill="#fff"></path><rect id="Rectangle_3" data-name="Rectangle 3" width="4.074" height="14.405" transform="translate(125.956 27.435)" fill="#fff"></rect><rect id="Rectangle_4" data-name="Rectangle 4" width="4.214" height="16.354" transform="translate(211.585 31.555)" fill="#fff"></rect><path id="Path_13" data-name="Path 13" d="M523.432,62.626a2.618,2.618,0,1,1-2.618-2.618,2.618,2.618,0,0,1,2.618,2.618" transform="translate(-307.121 -35.254)" fill="#fff"></path><path id="Path_14" data-name="Path 14" d="M56.936,50.972v5.654l6.4.011V50.983Z" transform="translate(-33.744 -29.898)" fill="#b70821"></path></g></g><g id="Group_4" data-name="Group 4" transform="translate(0 21.054)"><g id="Group_3" data-name="Group 3" clip-path="url(#clip-path-3)"><rect id="Rectangle_6" data-name="Rectangle 6" width="29.589" height="26.447" transform="translate(0 0)" fill="url(#linear-gradient)"></rect></g></g><g id="Group_6" data-name="Group 6" transform="translate(23.192 0.312)"><g id="Group_5" data-name="Group 5" clip-path="url(#clip-path-4)"><rect id="Rectangle_7" data-name="Rectangle 7" width="29.589" height="26.447" transform="translate(0)" fill="url(#linear-gradient-2)"></rect></g></g><g id="Group_11" data-name="Group 11"><g id="Group_10" data-name="Group 10" clip-path="url(#clip-path)"><g id="Group_9" data-name="Group 9" transform="translate(23.191 21.074)" opacity="0.5"><g id="Group_8" data-name="Group 8"><g id="Group_7" data-name="Group 7" clip-path="url(#clip-path-6)"><path id="Path_17" data-name="Path 17" d="M56.936,50.972v5.654l6.4.011V50.983Z" transform="translate(-56.936 -50.972)" fill="#fe9d2b"></path></g></g></g></g></g></g></g></g></g></g></svg>