<svg width="194" height="52" viewBox="0 0 194 52" fill="none" xmlns="http://www.w3.org/2000/svg">
<g clip-path="url(#clip0_4246_5334)">
<path d="M11.2978 19.793L0.290512 26.1521L11.2978 32.5112V19.793Z" fill="white" fill-opacity="0.4"/>
<path d="M33.3125 19.793L22.3052 26.1521L33.3125 32.5112V19.793Z" fill="white" fill-opacity="0.8"/>
<path d="M0.290512 13.434V26.1521L11.2978 19.793L0.290512 13.434Z" fill="white" fill-opacity="0.5"/>
<path d="M0.290512 26.1521V38.8702L11.2978 32.5112L0.290512 26.1521Z" fill="white" fill-opacity="0.35"/>
<path d="M11.2978 32.5112L0.290512 38.8702L11.2978 45.2293L22.3052 38.8702L11.2978 32.5112Z" fill="white" fill-opacity="0.25"/>
<path d="M11.2978 7.07489L0.290512 13.434L11.2978 19.793L22.3052 13.434L11.2978 7.07489Z" fill="white" fill-opacity="0.6"/>
<path d="M33.3125 7.07489L22.3052 13.434L33.3125 19.793L44.3521 13.434L33.3125 7.07489Z" fill="white"/>
<path d="M22.3052 0.71582L11.2978 7.07489L22.3052 13.434L33.3125 7.07489L22.3052 0.71582Z" fill="white" fill-opacity="0.8"/>
<path d="M22.3052 38.8702L11.2978 45.2293L22.3052 51.5884L33.3125 45.2293L22.3052 38.8702Z" fill="white" fill-opacity="0.2"/>
<path d="M33.3125 32.5112L22.3052 38.8702L33.3125 45.2293L44.3521 38.8702L33.3125 32.5112Z" fill="white" fill-opacity="0.15"/>
<path d="M58.6842 25.8616V25.6679C58.6842 20.1804 62.4932 16.2746 67.8839 16.2746C71.822 16.2746 75.3081 18.0822 75.8246 22.4722H72.3707C71.9511 20.019 70.3048 18.986 67.9161 18.986C64.3008 18.986 62.2349 21.6652 62.2349 25.7002V25.8939C62.2349 29.832 64.0749 32.5434 67.9161 32.5434C71.37 32.5434 72.7903 30.4453 72.8872 27.8952H68.2712V25.3128H76.2765V27.0236C76.2765 32.1238 73.0809 35.2227 67.8839 35.2227C61.9767 35.2227 58.6842 31.2845 58.6842 25.8616ZM79.0526 30.1225C79.0526 33.7055 81.0216 35.2227 83.7008 35.2227C85.8958 35.2227 87.3161 34.1574 87.9617 32.8662V34.9644H91.0606V21.5039H87.9617V29.5092C87.9617 31.6396 86.5091 32.7371 84.8306 32.7371C83.023 32.7371 82.1837 31.801 82.1837 29.7674V21.5039H79.0849V30.1225M102.229 30.2516C102.229 31.9624 100.809 32.9954 98.9045 32.9954C97.3551 32.9954 96.7418 32.2529 96.7418 31.1231C96.7418 29.4769 98.2589 28.9281 100.615 28.9281H102.197V30.2516M93.6752 31.22C93.6752 34.0283 95.7088 35.2227 98.1943 35.2227C100.26 35.2227 101.422 34.4802 102.326 33.3182V34.9644H105.393V26.1198C105.393 22.44 103.036 21.2133 100.002 21.2133C96.9677 21.2133 94.4822 22.5368 94.2239 25.6679H97.2259C97.3873 24.3444 98.1943 23.5697 99.8083 23.5697C101.648 23.5697 102.262 24.4736 102.262 26.2812V26.9914H100.583C96.7095 26.9591 93.6752 28.0889 93.6752 31.22ZM108.814 34.9644H111.913V27.9598C111.913 25.0869 113.559 24.2153 116.303 24.183V21.2779C114.044 21.3102 112.785 22.3108 111.913 24.0217V21.5039H108.814V34.9644ZM128.214 28.2826C128.214 31.2845 126.633 32.7371 124.47 32.7371C122.469 32.7371 120.984 31.3168 120.984 28.3794V28.1857C120.984 25.2806 122.307 23.6666 124.599 23.6666C126.859 23.6666 128.214 25.1514 128.214 28.0889V28.2826ZM117.788 28.444C117.788 32.834 120.338 35.2227 123.695 35.2227C125.664 35.2227 127.407 34.0283 128.117 32.7048V34.9644H131.249V15.2739H128.117V23.5697C127.375 22.2463 126.019 21.2133 123.824 21.2133C120.338 21.2133 117.788 23.9571 117.788 28.2503V28.444ZM134.896 34.9644H137.995V21.5039H134.896V34.9644ZM134.573 17.5012C134.573 18.5019 135.413 19.2766 136.413 19.2766C137.446 19.2766 138.253 18.5019 138.253 17.5012C138.253 16.4682 137.414 15.6935 136.413 15.6935C135.38 15.6935 134.573 16.4682 134.573 17.5012ZM140.771 28.3794C140.771 32.6726 143.708 35.1904 147.582 35.1904C151.23 35.1904 153.586 32.9954 153.812 29.9288H150.971C150.778 31.8333 149.39 32.8017 147.743 32.8017C145.452 32.8017 143.999 31.2523 143.999 28.3148V28.1212C143.999 25.3451 145.516 23.6989 147.647 23.6989C149.293 23.6989 150.487 24.4413 150.745 26.2489H153.747C153.392 22.5368 150.584 21.2133 147.582 21.2133C143.838 21.2133 140.771 23.9248 140.771 28.1857V28.3794ZM166.078 28.3148C166.078 31.0586 164.69 32.8017 162.366 32.8017C160.01 32.8017 158.622 31.0909 158.622 28.3148V28.1212C158.622 25.3451 160.042 23.6666 162.366 23.6666C164.69 23.6666 166.078 25.3774 166.078 28.1534V28.3148ZM155.458 28.3794C155.458 32.4789 158.396 35.2227 162.366 35.2227C166.336 35.2227 169.306 32.5112 169.306 28.3148V28.1212C169.306 23.9894 166.336 21.2456 162.398 21.2456C158.428 21.2456 155.491 24.0216 155.491 28.1857V28.3794M171.985 34.9644H175.116V27.9598C175.116 25.0869 176.763 24.2153 179.506 24.183V21.2779C177.247 21.3102 175.988 22.3108 175.116 24.0217V21.5039H171.985V34.9644ZM184.155 26.83C184.478 24.7318 185.736 23.4729 187.609 23.4729C189.545 23.4729 190.707 24.5058 190.869 26.83H184.155ZM180.894 28.3794C180.894 32.6403 183.767 35.2227 187.705 35.2227C191.159 35.2227 193.451 33.6732 193.871 30.8326H190.869C190.643 32.1561 189.675 32.8985 187.77 32.8985C185.446 32.8985 184.155 31.4459 184.058 28.8959H193.903V27.992C193.903 23.1824 190.901 21.2133 187.544 21.2133C183.703 21.2133 180.862 23.9894 180.862 28.1534V28.3794" fill="white"/>
</g>
<defs>
<clipPath id="clip0_4246_5334">
<rect width="194" height="51.0017" fill="white" transform="translate(0 0.618988)"/>
</clipPath>
</defs>
</svg>
