<svg width="176" height="44" viewBox="0 0 176 44" fill="none" xmlns="http://www.w3.org/2000/svg">
<g clip-path="url(#clip0_4246_5367)">
<path d="M0.949789 3.27428C0.899587 1.81517 2.0089 0.378733 3.45019 0.116385C7.54898 0.098571 11.6494 0.114766 15.7482 0.109908C16.7619 0.0742806 17.6899 0.961729 17.7336 1.96902C17.766 2.78359 17.7563 3.59979 17.7417 4.41436C17.7482 5.38278 16.9028 6.31558 15.9101 6.27671C13.7757 6.29776 11.638 6.23784 9.50202 6.30424C9.80647 6.98602 10.2243 7.60303 10.621 8.23299C13.1555 12.4451 15.6818 16.6654 18.2227 20.8743C18.6081 21.4265 18.7571 22.1293 18.5725 22.7836C18.3312 23.5706 17.5134 23.9123 16.8882 24.3366C16.2291 24.7237 15.604 25.3472 14.7781 25.25C14.0656 25.2727 13.4988 24.7382 13.17 24.1553C9.36113 17.9172 5.59594 11.6532 1.76436 5.42975C1.34817 4.78035 0.94655 4.06942 0.949789 3.27428ZM61.8874 11.8395C62.4283 11.5528 62.9757 11.2743 63.549 11.0589C64.1903 10.8192 64.9401 11.1301 65.3044 11.6905C65.8518 12.5358 66.2162 13.4832 66.6567 14.3868C68.3846 17.9982 70.0251 21.6532 71.7903 25.2451C72.4623 24.0646 72.9692 22.7982 73.5652 21.5771C74.9514 18.6443 76.315 15.6986 77.7109 12.769C78.0445 12.1245 78.3344 11.3115 79.0955 11.067C79.6882 10.816 80.2923 11.1431 80.8267 11.386C81.3174 11.6306 81.868 11.8184 82.2308 12.2508C82.6194 12.6848 82.6988 13.3391 82.5061 13.8767C79.821 19.5496 77.17 25.2419 74.4818 30.9148C74.0915 31.7504 73.7271 32.7415 72.7959 33.1075C71.6656 33.697 70.1789 33.0961 69.6283 31.9868C66.7684 25.9431 63.9376 19.8848 61.0793 13.8411C60.7636 13.0994 61.1846 12.1876 61.8874 11.8395ZM103.23 11.2419C104.402 10.5974 106.007 11.1771 106.542 12.3933C109.385 18.3933 112.164 24.4273 115.044 30.4111C115.322 31.1739 114.984 32.0889 114.253 32.4581C113.559 32.7933 112.877 33.2516 112.1 33.3439C111.152 33.3245 110.637 32.4111 110.294 31.6516C108.308 27.4233 106.296 23.2079 104.328 18.9698C102.328 23.2273 100.328 27.4832 98.3085 31.7326C98.0089 32.3512 97.6607 33.0589 96.9498 33.2759C96.3587 33.4929 95.7854 33.1366 95.264 32.9002C94.7781 32.6508 94.234 32.4565 93.8761 32.0257C93.4923 31.5901 93.4405 30.9439 93.6105 30.4095C96.3036 24.7852 98.9352 19.1285 101.585 13.4816C101.993 12.654 102.315 11.6468 103.23 11.2419ZM131.615 11.1609C132.54 10.9131 133.502 10.986 134.449 10.9795C137.204 10.9795 139.957 10.9795 142.712 10.9779C143.288 10.9472 143.904 11.1156 144.276 11.5836C144.898 12.2767 144.684 13.284 144.644 14.1277C144.636 14.8225 144.181 15.5237 143.484 15.6856C142.752 15.854 141.994 15.7714 141.251 15.7876C138.548 15.7876 135.847 15.786 133.146 15.7876C132.495 15.7601 131.761 16.0257 131.47 16.6459C131.275 17.2646 131.423 17.9982 131.915 18.4403C132.422 18.9763 133.173 19.1221 133.862 19.284C135.345 19.6484 136.833 19.9901 138.323 20.335C140.054 20.7285 141.696 21.7277 142.665 23.2419C143.68 24.7917 143.863 26.7901 143.403 28.5601C142.687 31.3002 139.84 33.2289 137.039 33.0281C133.905 33.0184 130.772 33.033 127.638 33.02C126.708 33.101 125.894 32.2006 125.951 31.2953C125.957 30.6621 125.918 30.016 126.07 29.3957C126.255 28.7188 126.937 28.2184 127.645 28.2735C130.668 28.2702 133.691 28.267 136.717 28.2767C137.241 28.2751 137.823 28.3026 138.27 27.9755C138.932 27.5042 138.976 26.505 138.598 25.8411C138.284 25.2986 137.653 25.0799 137.073 24.9633C135.44 24.6249 133.832 24.1876 132.206 23.8249C130.315 23.3795 128.551 22.2459 127.504 20.5909C126.503 18.986 126.289 16.9245 126.874 15.1366C127.559 13.0524 129.546 11.6532 131.615 11.1609ZM155.612 12.335C155.704 11.5415 156.488 10.9374 157.277 10.9795C162.786 10.9812 168.297 10.9747 173.808 10.9828C174.647 10.9617 175.385 11.6727 175.45 12.5002C175.5 13.4265 175.632 14.5261 174.934 15.2597C174.534 15.7196 173.889 15.8006 173.317 15.7925C171.53 15.7828 169.74 15.7957 167.952 15.7812C167.852 21.0038 167.946 26.233 167.907 31.4573C167.915 32.1407 167.371 32.7302 166.762 32.965C166.036 33.0783 165.296 33.02 164.566 33.0152C163.993 33.0395 163.502 32.6233 163.253 32.1391C163.011 31.5075 163.086 30.816 163.074 30.1553C163.078 25.365 163.081 20.5763 163.074 15.786C161.359 15.7893 159.645 15.7828 157.931 15.7941C157.476 15.7925 157.006 15.7974 156.581 15.6208C156.02 15.3488 155.591 14.7658 155.596 14.131C155.578 13.5318 155.565 12.9326 155.612 12.335ZM34.715 19.8184C35.1117 19.1577 35.4907 18.3318 36.3166 18.1423C37.1927 17.8816 37.9603 18.471 38.6729 18.8889C39.3174 19.2889 40.1044 19.6289 40.4057 20.382C40.6405 21.2079 40.4397 22.1018 39.9911 22.8192C36.3587 28.8532 32.7409 34.8986 29.1085 40.9326C28.6275 41.7099 28.2259 42.6346 27.3644 43.067C26.1044 43.7472 24.4478 43.1172 23.698 41.9658C21.6866 38.5795 19.6802 35.1868 17.6607 31.8038C17.3401 31.3034 17.3206 30.6557 17.4939 30.1018C17.7368 29.5059 18.3312 29.1868 18.8656 28.8953C19.4648 28.5747 20.0364 28.2022 20.6599 27.9285C21.4534 27.5787 22.4429 27.9447 22.885 28.6751C23.9797 30.4451 24.987 32.2702 26.1174 34.0208C26.3636 33.6775 26.6032 33.331 26.8138 32.965C29.4243 28.5698 32.0818 24.2006 34.715 19.8184Z" fill="white"/>
<path d="M22.7943 1.84756C23.0113 0.725289 24.2615 0.213548 25.298 0.249176C33.0146 0.23784 40.7312 0.234601 48.4478 0.23622C50.5368 0.184398 51.983 2.84189 50.9401 4.60545C48.9854 7.8427 47.0243 11.0735 45.0907 14.322C44.796 14.8791 44.3636 15.42 43.7109 15.5496C43.0891 15.7795 42.4705 15.4168 41.9441 15.1156C41.3676 14.7706 40.7684 14.4629 40.2 14.105C39.4648 13.6354 39.115 12.599 39.5247 11.8071C40.5417 9.93177 41.7822 8.17954 42.7749 6.29128C36.6777 6.27185 30.5806 6.28966 24.485 6.27671C23.5215 6.29452 22.7004 5.36658 22.7555 4.41922C22.77 3.56254 22.702 2.69938 22.7943 1.84756Z" fill="white"/>
</g>
<defs>
<clipPath id="clip0_4246_5367">
<rect width="176" height="44" fill="white"/>
</clipPath>
</defs>
</svg>
